<?xml version="1.0" standalone="no"?>
<!DOCTYPE svg PUBLIC "-//W3C//DTD SVG 1.1//EN" "http://www.w3.org/Graphics/SVG/1.1/DTD/svg11.dtd" >
<svg xmlns="http://www.w3.org/2000/svg">
<metadata>Generated by IcoMoon</metadata>
<defs>
<font id="fcc-icons" horiz-adv-x="1024">
<font-face units-per-em="1024" ascent="960" descent="-64" />
<missing-glyph horiz-adv-x="1024" />
<glyph unicode="&#x20;" horiz-adv-x="512" d="" />
<glyph unicode="&#xe900;" glyph-name="window-seat" horiz-adv-x="1248" d="M95.437 366.026v-291.745c0-41.28 33.464-74.743 74.743-74.743s74.743 33.464 74.743 74.743v297.917l-1.012 12.26-74.743 449.522c-6.77 40.72-45.27 68.243-85.992 61.472s-68.243-45.27-61.472-85.992l73.732-443.434zM394.415 298.511v-224.232c0-41.28 33.464-74.743 74.743-74.743s74.743 33.464 74.743 74.743v298.975c0 41.28-33.464 74.743-74.743 74.743h-298.975c-41.28 0-74.743-33.464-74.743-74.743s33.464-74.743 74.743-74.743h224.232zM1215.199 807.331c7.947 40.508-18.448 79.788-58.957 87.735s-79.788-18.448-87.735-58.957l-74.743-380.982-1.398-14.39v-366.457c0-41.28 33.464-74.743 74.743-74.743s74.743 33.464 74.743 74.743v359.195l73.345 373.856zM543.901 597.489v-74.743c0-41.28 33.464-74.743 74.743-74.743s74.743 33.464 74.743 74.743v74.743c0 41.28-33.464 74.743-74.743 74.743s-74.743-33.464-74.743-74.743zM842.879 298.511h224.232c41.28 0 74.743 33.464 74.743 74.743s-33.464 74.743-74.743 74.743h-298.975c-41.28 0-74.743-33.464-74.743-74.743v-298.975c0-41.28 33.464-74.743 74.743-74.743s74.743 33.464 74.743 74.743v224.232zM768.133 746.975h-298.975c-41.28 0-74.743-33.464-74.743-74.743s33.464-74.743 74.743-74.743h298.975c41.28 0 74.743 33.464 74.743 74.743s-33.464 74.743-74.743 74.743z" />
<glyph unicode="&#xe901;" glyph-name="table" d="M384 960h256c23.564 0 42.667-19.103 42.667-42.667s-19.103-42.667-42.667-42.667h-256c-23.564 0-42.667 19.103-42.667 42.667s19.103 42.667 42.667 42.667zM384 21.333h256c23.564 0 42.667-19.103 42.667-42.667s-19.103-42.667-42.667-42.667h-256c-23.564 0-42.667 19.103-42.667 42.667s19.103 42.667 42.667 42.667zM42.667 618.667c23.564 0 42.667-19.103 42.667-42.667v-256c0-23.564-19.103-42.667-42.667-42.667s-42.667 19.103-42.667 42.667v256c0 23.564 19.103 42.667 42.667 42.667zM981.333 618.667c23.564 0 42.667-19.103 42.667-42.667v-256c0-23.564-19.103-42.667-42.667-42.667s-42.667 19.103-42.667 42.667v256c0 23.564 19.103 42.667 42.667 42.667zM341.333 704c-47.128 0-85.333-38.205-85.333-85.333v-341.333c0-47.128 38.205-85.333 85.333-85.333h341.333c47.128 0 85.333 38.205 85.333 85.333v341.333c0 47.128-38.205 85.333-85.333 85.333h-341.333zM341.333 789.333h341.333c94.257 0 170.667-76.41 170.667-170.667v-341.333c0-94.257-76.41-170.667-170.667-170.667h-341.333c-94.257 0-170.667 76.41-170.667 170.667v341.333c0 94.257 76.41 170.667 170.667 170.667z" />
<glyph unicode="&#xe902;" glyph-name="minus" horiz-adv-x="1152" d="M64 384c-35.346 0-64 28.654-64 64s28.654 64 64 64h1024c35.346 0 64-28.654 64-64s-28.654-64-64-64h-1024z" />
<glyph unicode="&#xe903;" glyph-name="plus" d="M455.111 504.889v398.222c0 31.419 25.47 56.889 56.889 56.889s56.889-25.47 56.889-56.889v-398.222h398.222c31.419 0 56.889-25.47 56.889-56.889s-25.47-56.889-56.889-56.889h-398.222v-398.222c0-31.419-25.47-56.889-56.889-56.889s-56.889 25.47-56.889 56.889v398.222h-398.222c-31.419 0-56.889 25.47-56.889 56.889s25.47 56.889 56.889 56.889h398.222z" />
<glyph unicode="&#xe904;" glyph-name="account" d="M53.895 16.842c-29.765 0-53.895 24.129-53.895 53.895v592.842c0 29.765 24.129 53.895 53.895 53.895h754.526c29.765 0 53.895-24.129 53.895-53.895v-592.842c0-29.765-24.129-53.895-53.895-53.895h-754.526zM107.789 124.632h646.737v485.053h-646.737v-485.053zM916.211 286.316c0-29.765 24.129-53.895 53.895-53.895s53.895 24.129 53.895 53.895v538.947c0 29.765-24.129 53.895-53.895 53.895h-862.316c-29.765 0-53.895-24.129-53.895-53.895s24.129-53.895 53.895-53.895h808.421v-485.053zM538.947 394.105h107.789c29.765 0 53.895 24.129 53.895 53.895s-24.129 53.895-53.895 53.895h-107.789c-29.765 0-53.895-24.129-53.895-53.895s24.129-53.895 53.895-53.895zM538.947 232.421h53.895c29.765 0 53.895 24.129 53.895 53.895s-24.129 53.895-53.895 53.895h-53.895c-29.765 0-53.895-24.129-53.895-53.895s24.129-53.895 53.895-53.895zM414.349 285.256l-73.391 39.132c23.415 18.42 34.201 56.249 34.201 76.466v33.785c0 44.927-41.572 67.256-78.739 67.256-37.257 0-78.559-22.329-78.559-67.256v-33.785c0-18.375 10.157-57.372 33.707-76.286l-73.076-39.311c0 0-16.808-7.503-16.808-16.848v-19.139c0-9.3 7.55-16.848 16.808-16.848h235.857c9.303 0 16.808 7.548 16.808 16.848v19.139c0 9.929-16.808 16.848-16.808 16.848z" />
<glyph unicode="&#xe905;" glyph-name="allergies" d="M448 837.565c0-13.842 11.201-25.043 25.043-25.043s25.043 11.201 25.043 25.043c0 13.842-11.201 25.043-25.043 25.043s-25.043-11.201-25.043-25.043zM214.261 505.837l-30.531 15.265c-17.126-12.712-38.334-20.233-61.295-20.233-56.85 0-102.957 46.106-102.957 102.957s46.106 102.957 102.957 102.957c40.861 0 76.172-23.818 92.802-58.325l57.551-28.776 111.212 77.849v88.325c-8.846 15.197-13.913 32.863-13.913 51.709 0 56.85 46.106 102.957 102.957 102.957s102.957-46.106 102.957-102.957c0-43.065-26.457-79.965-64-95.328v-9.646l161.299-112.909 57.551 28.776c16.63 34.507 51.941 58.325 92.802 58.325 56.85 0 102.957-46.106 102.957-102.957s-46.106-102.957-102.957-102.957c-22.961 0-44.169 7.521-61.295 20.233l-30.531-15.265v-115.674l71.852-35.926c6.462 1.271 13.14 1.937 19.974 1.937 56.85 0 102.957-46.106 102.957-102.957s-46.106-102.957-102.957-102.957c-56.651 0-102.633 45.783-102.955 102.358l-47.398 23.699-161.299-112.909v-9.646c37.543-15.363 64-52.263 64-95.328 0-56.85-46.106-102.957-102.957-102.957s-102.957 46.106-102.957 102.957c0 18.847 5.067 36.512 13.913 51.709v88.325l-111.212 77.849-47.398-23.699c-0.322-56.575-46.304-102.358-102.955-102.358-56.85 0-102.957 46.106-102.957 102.957s46.106 102.957 102.957 102.957c6.834 0 13.512-0.666 19.974-1.937l71.852 35.926v115.674zM498.071 57.526c-8.638-10.835-20.719-18.803-34.587-22.249 2.945-1.215 6.173-1.886 9.559-1.886 13.538 0 24.55 10.714 25.027 24.135z" />
<glyph unicode="&#xe906;" glyph-name="anniversary" d="M497.151 686.467c-25.956 15.58-53.152 27.948-80.083 36.021-31.922 9.57-65.559-8.548-75.133-40.472s8.548-65.559 40.472-75.133c4.355-1.304 8.745-2.806 13.159-4.485-45.571-56.479-72.86-128.318-72.86-206.517 0-78.626 27.568-150.808 73.561-207.414-91.897-24.348-191.724 16.261-238.76 103.706-35.322 65.443-25.535 154.128 21.406 223.485 18.679 27.599 11.448 65.116-16.151 83.795s-65.116 11.448-83.795-16.151c-70.756-104.542-85.786-240.759-27.705-348.373 86.635-161.072 287.335-221.186 448.367-134.445 1.101 0.594 2.195 1.191 3.287 1.795 44.724-22.734 95.334-35.546 148.937-35.546 181.82 0 329.146 147.326 329.146 329.146 0 181.767-147.35 329.146-329.146 329.146-55.916 0-108.578-13.952-154.701-38.563zM860.309 395.884c0-115.166-93.29-208.46-208.46-208.46-115.12 0-208.46 93.32-208.46 208.46 0 115.089 93.368 208.46 208.46 208.46 115.14 0 208.46-93.34 208.46-208.46zM224.433 542.508l-149.186 126.3c-35.827 30.332-24.825 88.155 19.637 103.211l192.001 65.011c44.585 15.097 88.521-24.398 78.238-70.336l-42.816-191.311c-9.906-44.257-63.264-62.179-97.875-32.875z" />
<glyph unicode="&#xe907;" glyph-name="arrow-down" d="M512 305.081l-400.617 389.489-76.479-78.665 477.097-463.844 477.097 463.844-76.479 78.665z" />
<glyph unicode="&#xe908;" glyph-name="arrow-right" d="M654.919 448l-389.489-400.617 78.665-76.479 463.844 477.097-463.844 477.097-78.665-76.479z" />
<glyph unicode="&#xe909;" glyph-name="back" d="M117.722 448l258.092 258.092c19.043 19.043 19.043 49.917 0 68.96s-49.917 19.043-68.96 0l-292.571-292.571c-19.043-19.043-19.043-49.917 0-68.96l292.571-292.571c19.043-19.043 49.917-19.043 68.96 0s19.043 49.917 0 68.96l-258.092 258.092zM146.286 399.238h828.952c26.93 0 48.762 21.831 48.762 48.762s-21.831 48.762-48.762 48.762h-828.952c-26.93 0-48.762-21.831-48.762-48.762s21.831-48.762 48.762-48.762z" />
<glyph unicode="&#xe90a;" glyph-name="badge" d="M163.943 449.782c-16.592 42.28-25.703 88.316-25.703 136.479 0 206.391 167.374 373.738 373.76 373.738 206.445 0 373.76-167.32 373.76-373.738 0-48.198-9.119-94.264-25.725-136.566l157.070-271.182c22.188-38.308-11.411-84.816-54.75-75.785l-156.1 32.528-63.885-166.407c-16.238-42.295-75.364-44.213-94.308-3.058l-113.851 247.337c-7.348-0.431-14.754-0.649-22.211-0.649-7.153 0-14.26 0.201-21.314 0.598l-114.813-247.429c-19.038-41.028-78.031-39.024-94.242 3.201l-63.885 166.407-156.1-32.528c-43.334-9.030-76.933 37.468-54.755 75.776l157.053 271.279zM223.618 348.48l-70.708-122.135 86.58 18.042c24.579 5.122 49.245-8.334 58.243-31.773l36.153-94.17 53.509 115.315c-64.583 22.836-121.022 62.921-163.777 114.72zM262.447 479.507c4.6-5.898 7.808-12.696 9.483-19.861 45.5-86.092 135.946-144.766 240.070-144.766 104.035 0 194.374 58.517 239.915 144.44 1.677 7.391 4.983 14.4 9.763 20.448 13.957 32.695 21.682 68.691 21.682 106.494 0 149.865-121.47 271.338-271.36 271.338-149.836 0-271.36-121.505-271.36-271.338 0-37.901 7.771-73.988 21.807-106.754zM800.359 348.418c-42.59-51.585-98.755-91.545-163.030-114.412l52.971-115.077 35.967 93.686c8.998 23.439 33.665 36.895 58.243 31.773l86.55-18.035-70.701 122.066z" />
<glyph unicode="&#xe90b;" glyph-name="bell" horiz-adv-x="853" d="M754.951 192h-656.632l109.432 192.234c11.653 20.481 4.496 46.531-15.986 58.184s-46.531 4.496-58.184-15.986l-123.947-217.856c-25.753-51.369 5.484-101.91 60.637-101.91h712.789c55.153 0 86.39 50.541 61.714 99.892l-125.024 219.874c-11.653 20.481-37.702 27.638-58.184 15.986s-27.638-37.702-15.986-58.184l109.37-192.234zM512 106.667c0-47.152-38.216-85.333-85.419-85.333-47.126 0-85.333 38.19-85.333 85.333 0 23.564-19.103 42.667-42.667 42.667s-42.667-19.103-42.667-42.667c0-94.28 76.421-170.667 170.667-170.667 94.313 0 170.752 76.369 170.752 170.667 0 23.564-19.103 42.667-42.667 42.667s-42.667-19.103-42.667-42.667zM725.333 661.333c0 164.977-133.721 298.667-298.752 298.667-164.892 0-298.581-133.721-298.581-298.667 0-23.564 19.103-42.667 42.667-42.667s42.667 19.103 42.667 42.667c0 117.822 95.489 213.333 213.248 213.333 117.908 0 213.419-95.489 213.419-213.333 0-23.564 19.103-42.667 42.667-42.667s42.667 19.103 42.667 42.667zM128 661.333v-256c0-23.564 19.103-42.667 42.667-42.667s42.667 19.103 42.667 42.667v256c0 23.564-19.103 42.667-42.667 42.667s-42.667-19.103-42.667-42.667zM640 661.333v-256c0-23.564 19.103-42.667 42.667-42.667s42.667 19.103 42.667 42.667v256c0 23.564-19.103 42.667-42.667 42.667s-42.667-19.103-42.667-42.667z" />
<glyph unicode="&#xe90c;" glyph-name="birthday" d="M955.733 140.8h-887.467c-37.703 0-68.267-30.564-68.267-68.267s30.564-68.267 68.267-68.267h887.467c37.703 0 68.267 30.564 68.267 68.267s-30.564 68.267-68.267 68.267zM204.8 72.533v182.044c0 13.622 8.373 22.756 15.17 22.756h584.059c6.819 0 15.17-9.113 15.17-22.756v-182.044c0-37.703 30.564-68.267 68.267-68.267s68.267 30.564 68.267 68.267v182.044c0 86.514-66.688 159.289-151.704 159.289h-584.059c-84.983 0-151.704-72.786-151.704-159.289v-182.044c0-37.703 30.564-68.267 68.267-68.267s68.267 30.564 68.267 68.267zM341.333 345.6v182.044c0 15.929 5.12 22.756 0 22.756h341.333c-5.104 0 0-6.808 0-22.756v-182.044c0-37.703 30.564-68.267 68.267-68.267s68.267 30.564 68.267 68.267v182.044c0 84.208-56.291 159.289-136.533 159.289h-341.333c-80.213 0-136.533-75.093-136.533-159.289v-182.044c0-37.703 30.564-68.267 68.267-68.267s68.267 30.564 68.267 68.267zM409.6 680.066c0-66.579 35.052-129.666 102.4-129.666 67.366 0 102.4 63.076 102.4 129.666 0 1.18-0.030 2.352-0.089 3.517-0.531 44.973-11.22 87.492-28.608 126.634-10.739 24.173-21.804 42.437-30.276 53.877-38.355 51.792-120.513 26.482-123.074-37.915-0.856-21.526-3.394-36.587-9.155-59.542-2.406-9.451-3.818-15.022-5.007-19.983-5.377-22.434-8.176-41.054-8.478-62.631-0.075-1.31-0.113-2.629-0.113-3.958z" />
<glyph unicode="&#xe90d;" glyph-name="block" d="M835.576 196.852c53.915 69.359 86.024 156.508 86.024 251.148 0 226.249-183.386 409.6-409.6 409.6-94.651 0-181.803-32.099-251.162-86.009l574.739-574.739zM763.171 124.442l-574.744 574.744c-53.919-69.358-86.027-156.517-86.027-251.186 0-226.195 183.416-409.6 409.6-409.6 94.648 0 181.807 32.115 251.171 86.042zM1024 448c0-282.751-229.264-512-512-512s-512 229.249-512 512c0 282.807 229.236 512 512 512s512-229.193 512-512z" />
<glyph unicode="&#xe90e;" glyph-name="blocked-table" d="M256 635.733c0 10.491 2.211 15.721 0 25.6 10.084-2.166 15.423 0 25.6 0 67.367-1.287 138.435-15.987 204.8-51.2v-384c-65.906 29.184-137.107 45.156-204.8 51.2-16.202-4.226-25.6 4.98-25.6 25.6v332.8zM742.4 661.333c16.202 0 25.6-9.207 25.6-25.6v-332.8c0-20.652-9.398-29.859-25.6-25.6-67.691-6.069-138.891-22.029-204.8-51.2v384c66.366 35.213 137.433 49.911 204.8 51.2zM512-64c-282.77 0-512 229.23-512 512s229.23 512 512 512c282.77 0 512-229.23 512-512s-229.23-512-512-512zM512 21.333c235.641 0 426.667 191.025 426.667 426.667s-191.025 426.667-426.667 426.667c-235.641 0-426.667-191.025-426.667-426.667s191.025-426.667 426.667-426.667zM144.611 754.005l61.384 59.278 652.053-675.22-61.384-59.278-652.053 675.22z" />
<glyph unicode="&#xe90f;" glyph-name="blogger" d="M375.467 823.467h546.133c37.703 0 68.267 30.564 68.267 68.267s-30.564 68.267-68.267 68.267h-614.4c-37.703 0-68.267-30.564-68.267-68.267v-819.2c0-37.703 30.564-68.267 68.267-68.267s68.267 30.564 68.267 68.267v750.933zM989.867 72.533v819.2c0 37.703-30.564 68.267-68.267 68.267s-68.267-30.564-68.267-68.267v-819.2c0-37.703 30.564-68.267 68.267-68.267s68.267 30.564 68.267 68.267zM102.4-64h750.933c37.703 0 68.267 30.564 68.267 68.267s-30.564 68.267-68.267 68.267h-750.933c-37.703 0-68.267-30.564-68.267-68.267s30.564-68.267 68.267-68.267zM512 550.4h204.8c37.703 0 68.267 30.564 68.267 68.267s-30.564 68.267-68.267 68.267h-204.8c-37.703 0-68.267-30.564-68.267-68.267s30.564-68.267 68.267-68.267zM512 345.6h136.533c37.703 0 68.267 30.564 68.267 68.267s-30.564 68.267-68.267 68.267h-136.533c-37.703 0-68.267-30.564-68.267-68.267s30.564-68.267 68.267-68.267zM238.933 686.933h-136.533c-37.703 0-68.267-30.564-68.267-68.267s30.564-68.267 68.267-68.267h136.533c37.703 0 68.267 30.564 68.267 68.267s-30.564 68.267-68.267 68.267zM34.133 618.667v-614.4c0-37.703 30.564-68.267 68.267-68.267s68.267 30.564 68.267 68.267v614.4c0 37.703-30.564 68.267-68.267 68.267s-68.267-30.564-68.267-68.267zM853.333-64c75.249 0 136.533 61.284 136.533 136.533 0 37.703-30.564 68.267-68.267 68.267s-68.267-30.564-68.267-68.267c-37.703 0-68.267-30.564-68.267-68.267s30.564-68.267 68.267-68.267z" />
<glyph unicode="&#xe910;" glyph-name="booked" d="M0 844.8c0 20.982 4.423 31.442 0 51.2 20.169-4.333 30.846 0 51.2 0 134.734-2.575 276.871-31.974 409.6-102.4v-768c-131.813 58.369-274.214 90.312-409.6 102.4-32.405-8.453-51.2 9.96-51.2 51.2v665.6zM972.8 896c32.403 0 51.2-18.414 51.2-51.2v-665.6c0-41.304-18.797-59.719-51.2-51.2-135.383-12.138-277.782-44.058-409.6-102.4v768c132.731 70.426 274.866 99.821 409.6 102.4z" />
<glyph unicode="&#xe911;" glyph-name="booking" d="M777.275 21.333c89.137 0 161.391 72.254 161.391 161.391v649.275c0 23.564-19.103 42.667-42.667 42.667h-768c-23.564 0-42.667-19.103-42.667-42.667v-649.275c0-89.137 72.254-161.391 161.391-161.391h530.551zM777.275-64h-530.551c-136.265 0-246.725 110.459-246.725 246.725v649.275c0 70.692 57.308 128 128 128h768c70.692 0 128-57.308 128-128v-649.275c0-136.265-110.459-246.725-246.725-246.725zM170.667 704h682.667v85.333h-682.667zM370.594 414.812l-58.521-62.106 196.426-185.088 210.543 343.414-72.749 44.602-155.674-253.919z" />
<glyph unicode="&#xe912;" glyph-name="calender" d="M772.452 38.4c82.375 0 149.148 66.773 149.148 149.148v618.852c0 28.277-22.923 51.2-51.2 51.2h-716.8c-28.277 0-51.2-22.923-51.2-51.2v-618.852c0-82.375 66.773-149.148 149.148-149.148h520.904zM772.452-64h-520.904c-138.929 0-251.548 112.619-251.548 251.548v618.852c0 84.831 68.769 153.6 153.6 153.6h716.8c84.831 0 153.6-68.769 153.6-153.6v-618.852c0-138.929-112.619-251.548-251.548-251.548zM231.513 652.8h560.974v102.4h-560.974zM665.6 422.4c0-42.415-34.385-76.8-76.8-76.8s-76.8 34.385-76.8 76.8c0 42.415 34.385 76.8 76.8 76.8s76.8-34.385 76.8-76.8z" />
<glyph unicode="&#xe913;" glyph-name="camera" d="M763.345 655.127h125.673c17.803 0 32.582-14.779 32.582-32.582v-460.8c0-22.516-19.538-46.545-32.582-46.545h-754.036c-13.044 0-32.582 24.030-32.582 46.545v460.8c0 17.803 14.779 32.582 32.582 32.582h125.673c28.277 0 51.2 22.923 51.2 51.2s-22.923 51.2-51.2 51.2h-125.673c-74.357 0-134.982-60.625-134.982-134.982v-460.8c0-74.941 60.172-148.945 134.982-148.945h754.036c74.81 0 134.982 74.005 134.982 148.945v460.8c0 74.357-60.625 134.982-134.982 134.982h-125.673c-28.277 0-51.2-22.923-51.2-51.2s22.923-51.2 51.2-51.2zM358.269 780.8h307.463l52.413-98.52c13.281-24.964 44.285-34.435 69.249-21.154s34.435 44.285 21.154 69.249l-66.858 125.673c-8.89 16.71-26.274 27.153-45.201 27.153h-368.975c-18.928 0-36.312-10.443-45.201-27.153l-66.858-125.673c-13.281-24.964-3.81-55.968 21.154-69.249s55.968-3.81 69.249 21.154l52.413 98.52zM751.709 433.994c0-132.384-107.3-239.667-239.709-239.667-132.351 0-239.709 107.308-239.709 239.667 0 132.363 107.362 239.709 239.709 239.709 132.405 0 239.709-107.32 239.709-239.709zM649.309 433.994c0 75.838-61.461 137.309-137.309 137.309-75.796 0-137.309-61.503-137.309-137.309 0-75.794 61.501-137.267 137.309-137.267 75.859 0 137.309 61.441 137.309 137.267z" />
<glyph unicode="&#xe914;" glyph-name="cancel" d="M512 528.453l-120.68 120.68c-22.216 22.216-58.237 22.216-80.453 0s-22.216-58.237 0-80.453l120.68-120.68-120.68-120.68c-22.216-22.216-22.216-58.237 0-80.453v0c22.216-22.216 58.237-22.216 80.453 0l120.68 120.68 120.68-120.68c22.216-22.216 58.237-22.216 80.453 0s22.216 58.237 0 80.453l-120.68 120.68 120.68 120.68c22.216 22.216 22.216 58.237 0 80.453s-58.237 22.216-80.453 0l-120.68-120.68zM512 960c281.6 0 512-230.4 512-512s-230.4-512-512-512c-281.6 0-512 230.4-512 512s230.4 512 512 512z" />
<glyph unicode="&#xe915;" glyph-name="chat" d="M402.149 349.446c-67.313 0-67.313-100.845-0.082-100.845l0.082 100.845zM402.149 248.602h-70.175c-27.847 0-50.423 22.574-50.423 50.423s22.574 50.423 50.423 50.423h70.092c167.718 0 300.244 109.146 300.244 238.361s-132.526 238.361-300.244 238.361c-167.692 0-300.244-109.158-300.244-238.361 0-72.056 44.5-138.681 122.625-185.837 23.841-14.39 31.503-45.384 17.113-69.225s-45.384-31.503-69.224-17.113c-106.294 64.158-171.357 161.572-171.357 272.174 0 189.693 181.556 339.207 401.089 339.207 219.56 0 401.089-149.504 401.089-339.207 0-189.665-181.456-339.147-400.958-339.207-0.040 0-0.084 33.615-0.132 100.845l0.082-100.845zM643.658 96.728c-8.327-7.986-20.094-13.146-35.302-13.146-75.686 0.018-147.958 16.016-208.459 46.71-24.835 12.599-34.753 42.945-22.153 67.78s42.945 34.753 67.78 22.153c45.838-23.255 102.541-35.799 162.834-35.799h69.016c15.544 0.323 31.025-6.524 41.177-19.831 14.802-19.401 32.688-33.867 53.298-44.228 0.996-0.502 1.995-0.991 2.996-1.47-7.076 21.94-11.633 45.893-13.21 71.83-1.212 19.938 9.333 37.873 25.652 47.044 77.291 47.136 121.309 113.418 121.309 185.014 0 46.43-25.636 99.091-60.895 123.636-22.855 15.91-28.486 47.334-12.576 70.191s47.334 28.486 70.191 12.576c63.264-44.039 104.125-127.976 104.125-206.403 0-100.564-53.85-190.242-143.558-253.939 4.151-20.599 11.338-38.15 20.725-53.020 5.076-8.042 10.38-14.603 15.478-19.731 2.522-2.537 3.944-3.733 3.779-3.614 37.221-26.681 22.471-85.16-22.953-90.993-1.851-0.238-4.556-0.51-8.047-0.755-44.735-3.138-97.077 3.782-148.305 29.53-26.502 13.322-50.551 30.997-71.419 53.315h-46.864v100.845l0.082-50.423 22.292 16.036c-5.118-15.313-2.807-32.809 7.724-46.611 1.734-2.272 3.496-4.507 5.286-6.701zM333.048 349.446h69.016c167.718 0 300.244 109.146 300.244 238.361s-132.526 238.361-300.244 238.361c-167.692 0-300.244-109.158-300.244-238.361 0-71.784 44.165-138.178 121.742-185.302 1.877-1.083 3.675-2.284 5.385-3.591 14.141-10.746 21.236-27.888 19.654-44.836-1.651-25.296-6.151-48.691-13.062-70.161 1.040 0.498 2.078 1.008 3.114 1.529 20.57 10.36 38.436 24.814 53.234 44.19 10.153 13.294 25.625 20.132 41.159 19.81zM144.488 333.868c-89.698 63.676-143.512 153.355-143.512 253.941 0 189.693 181.556 339.207 401.089 339.207 219.56 0 401.089-149.504 401.089-339.207 0-189.665-181.456-339.147-400.958-339.207-0.040 0-0.084 33.615-0.132 100.845 67.296 0 67.313-100.796 0.132-100.845h-46.926c-20.833-22.267-44.827-39.912-71.26-53.223-51.279-25.823-103.679-32.765-148.456-29.622-3.49 0.245-6.195 0.517-8.046 0.755-45.42 5.838-60.168 64.313-22.949 90.993-0.168-0.121 1.248 1.070 3.765 3.601 5.086 5.116 10.378 11.664 15.445 19.688 9.394 14.88 16.579 32.448 20.717 53.074z" />
<glyph unicode="&#xe916;" glyph-name="check" d="M921.6 864h-819.2c-56.832 0-101.888-46.28-101.888-104l-0.512-624c0-57.72 45.568-104 102.4-104h819.2c56.832 0 102.4 46.28 102.4 104v624c0 57.72-45.568 104-102.4 104v0zM896 160h-768v320h768v-320zM896 608h-768v128h768v-128z" />
<glyph unicode="&#xe917;" glyph-name="clock" d="M921.6 448c0 226.168-183.432 409.6-409.6 409.6-226.222 0-409.6-183.401-409.6-409.6s183.378-409.6 409.6-409.6c226.168 0 409.6 183.432 409.6 409.6zM1024 448c0-282.722-229.278-512-512-512-282.779 0-512 229.25-512 512s229.221 512 512 512c282.722 0 512-229.278 512-512zM563.2 448v293.236c0 28.277-22.923 51.2-51.2 51.2s-51.2-22.923-51.2-51.2v-293.236c0-28.277 22.923-51.2 51.2-51.2s51.2 22.923 51.2 51.2zM475.796 411.796l167.564-167.564c19.995-19.995 52.413-19.995 72.408 0s19.995 52.413 0 72.408l-167.564 167.564c-19.995 19.995-52.413 19.995-72.408 0s-19.995-52.413 0-72.408z" />
<glyph unicode="&#xe918;" glyph-name="close" d="M56.887 830.705l837.818-837.818c19.995-19.995 52.413-19.995 72.408 0s19.995 52.413 0 72.408l-837.818 837.818c-19.995 19.995-52.413 19.995-72.408 0s-19.995-52.413 0-72.408zM894.705 903.113l-837.818-837.818c-19.995-19.995-19.995-52.413 0-72.408s52.413-19.995 72.408 0l837.818 837.818c19.995 19.995 19.995 52.413 0 72.408s-52.413 19.995-72.408 0z" />
<glyph unicode="&#xe919;" glyph-name="company" d="M487.299 601.6c-8.713 15.062-13.699 32.548-13.699 51.2v204.8h-307.2v-819.2h307.2v563.2h13.699zM576 550.4v-512h307.2v512h-307.2zM576 652.8h307.2c56.554 0 102.4-45.846 102.4-102.4v-512c0-56.554-45.846-102.4-102.4-102.4h-716.8c-56.554 0-102.4 45.846-102.4 102.4v819.2c0 56.554 45.846 102.4 102.4 102.4h307.2c56.554 0 102.4-45.846 102.4-102.4v-204.8zM780.8 448v-102.4h-102.4v102.4h102.4zM780.8 243.2v-102.4h-102.4v102.4h102.4zM371.2 499.2h-102.4v256h102.4v-256zM371.2 140.8h-102.4v256h102.4v-256z" />
<glyph unicode="&#xe91a;" glyph-name="confirmed" d="M512 960c-281.6 0-512-230.4-512-512s230.4-512 512-512c281.6 0 512 230.4 512 512s-230.4 512-512 512v0zM403.2 184.32l-211.2 208.593 89.6 88.494 121.6-120.099 339.2 335.012 89.6-88.494-428.8-423.506z" />
<glyph unicode="&#xe91b;" glyph-name="dashboard" horiz-adv-x="1109" d="M867.969 799.388c-9.301 15.829-14.636 34.267-14.636 53.946 0 58.892 47.775 106.667 106.667 106.667s106.667-47.775 106.667-106.667c0-51.587-36.657-94.643-85.333-104.531v-727.469h85.333c23.564 0 42.667-19.103 42.667-42.667s-19.103-42.667-42.667-42.667h-1024c-23.564 0-42.667 19.103-42.667 42.667s19.103 42.667 42.667 42.667h85.333v234.67c-25.905 19.464-42.667 50.447-42.667 85.33 0 58.892 47.775 106.667 106.667 106.667 13.754 0 26.902-2.606 38.976-7.351l117.708 117.708c-4.745 12.074-7.351 25.222-7.351 38.976 0 58.892 47.775 106.667 106.667 106.667s106.667-47.775 106.667-106.667c0-12.937-2.305-25.338-6.528-36.814l83.393-55.596c18.499 17.139 43.081 27.804 70.138 28.384l166.299 266.079zM896 683.23l-114.532-183.252c18.097-19.116 29.199-44.922 29.199-73.311 0-51.587-36.657-94.643-85.333-104.531v-300.802h170.667v661.897zM489.003 498.838c-6.276-2.617-12.855-4.651-19.67-6.036v-471.469h170.667v320.003c-25.531 19.183-42.181 49.555-42.656 83.822l-109.011 72.674 0.67 1.005zM384 472.994l-92.684-92.684c4.745-12.074 7.351-25.222 7.351-38.976 0-51.587-36.657-94.643-85.333-104.531v-215.469h170.667v451.66zM981.333 853.333c0 11.764-9.569 21.333-21.333 21.333s-21.333-9.569-21.333-21.333c0-11.764 9.569-21.333 21.333-21.333s21.333 9.569 21.333 21.333zM725.333 426.667c0 11.764-9.569 21.333-21.333 21.333s-21.333-9.569-21.333-21.333c0-11.764 9.569-21.333 21.333-21.333s21.333 9.569 21.333 21.333zM469.333 597.333c0 11.764-9.569 21.333-21.333 21.333s-21.333-9.569-21.333-21.333c0-11.764 9.569-21.333 21.333-21.333s21.333 9.569 21.333 21.333zM213.333 341.333c0 11.764-9.569 21.333-21.333 21.333s-21.333-9.569-21.333-21.333c0-11.764 9.569-21.333 21.333-21.333s21.333 9.569 21.333 21.333z" />
<glyph unicode="&#xe91c;" glyph-name="delete" d="M772.516 791.148l-32.456-649.107c-2.904-58.060-50.818-103.641-108.942-103.641h-256.045c-58.124 0-106.037 45.581-108.942 103.642l-32.456 649.106-102.272-5.114 32.456-649.107c5.631-112.557 98.523-200.927 211.214-200.927h256.045c112.691 0 205.584 88.37 211.214 200.926l32.456 649.108-102.272 5.114zM102.4 704h801.391v102.4h-801.391zM391.391 772.405l21.798 65.414c3.941 11.809 15.002 19.782 27.458 19.782h124.897c12.456 0 23.517-7.973 27.465-19.804l21.79-65.391 97.148 32.373-21.798 65.414c-17.902 53.64-68.078 89.809-124.606 89.809h-124.897c-56.528 0-106.704-36.169-124.599-89.786l-21.805-65.436 97.148-32.373z" />
<glyph unicode="&#xe91d;" glyph-name="deposit" d="M51.2 89.6c-28.277 0-51.2 22.923-51.2 51.2v460.8c0 28.277 22.923 51.2 51.2 51.2h768c28.277 0 51.2-22.923 51.2-51.2v-460.8c0-28.277-22.923-51.2-51.2-51.2h-768zM768 192v358.4h-665.6v-358.4h665.6zM921.6 704v-460.8c0-28.277 22.923-51.2 51.2-51.2s51.2 22.923 51.2 51.2v512c0 28.277-22.923 51.2-51.2 51.2h-819.2c-28.277 0-51.2-22.923-51.2-51.2s22.923-51.2 51.2-51.2h768zM460.8 371.762c0-10.578-2.768-20.003-6.734-25.811-0.975-1.428 0.728-0.351 5.772-0.351 5.568 0 8.025-1.601 7.414-0.659-3.763 5.801-6.451 15.6-6.451 26.82 0 10.886 2.623 20.161 6.262 25.581 0.591 0.88-1.671-0.542-6.692-0.542-4.793 0-6.711 1.191-5.954 0.088 3.728-5.426 6.384-14.532 6.384-25.127zM563.2 371.762c0-67.236-41.877-128.562-103.363-128.562-61.855 0-101.437 61.020-101.437 128.562 0 67.33 40.361 127.438 101.97 127.438 61.441 0 102.83-60.234 102.83-127.438z" />
<glyph unicode="&#xe91e;" glyph-name="email" d="M921.6 669.509l-377.569-303.046c-18.725-15.030-45.377-15.029-64.098 0.002l-377.533 303.047v-471.113c0-17.427 14.682-31.999 32.582-31.999h754.038c17.9 0 32.582 14.574 32.582 31.999v471.109zM191.126 729.599l320.86-257.555 320.89 257.555h-641.75zM889.018 832c74.267 0 134.982-60.315 134.982-134.4v-499.2c0-74.149-60.693-134.4-134.982-134.4h-754.038c-74.287 0-134.982 60.251-134.982 134.4v499.2c0 74.085 60.714 134.4 134.982 134.4h754.038z" />
<glyph unicode="&#xe91f;" glyph-name="export" d="M450.546 908.8c-181.185 0-327.638-149.505-327.638-333.436 0-3.098 0.048-6.187 0.145-9.272-74.496-41.073-123.053-120.993-123.053-210.23 0-126.292 100.224-217.756 218.764-217.756 28.277 0 51.2 22.923 51.2 51.2s-22.923 51.2-51.2 51.2c-63.97 0-116.364 47.814-116.364 115.356 0 59.68 37.446 111.74 91.419 129.94 23.669 7.981 38.124 31.877 34.206 56.547-1.817 11.438-2.718 22.2-2.718 33.015 0 127.844 101.085 231.036 225.238 231.036 96.147 0 180.812-62.486 212.434-154.503 7.826-22.772 30.462-37.014 54.378-34.212 3.416 0.4 6.651 0.601 9.668 0.601 107.235 0 194.574-89.142 194.574-199.691 0-97.777-61.042-178.090-116.364-178.090-28.277 0-51.2-22.923-51.2-51.2s22.923-51.2 51.2-51.2c118.948 0 218.764 131.328 218.764 280.49 0 160.312-122.823 291.757-278.401 301.51-53.794 113.516-167.21 188.695-295.053 188.695zM460.8 448v-388.042c0-28.277 22.923-51.2 51.2-51.2s51.2 22.923 51.2 51.2v388.042c0 28.277-22.923 51.2-51.2 51.2s-51.2-22.923-51.2-51.2zM423.049 224.984c-19.705 20.281-52.119 20.748-72.4 1.043s-20.748-52.119-1.043-72.4l125.673-129.347c20.107-20.695 53.336-20.695 73.443 0l125.673 129.347c19.705 20.281 19.238 52.696-1.043 72.4s-52.696 19.238-72.4-1.043l-88.951-91.552-88.951 91.552z" />
<glyph unicode="&#xe920;" glyph-name="general" d="M755.667-58.843c-6.985-3.307-14.794-5.157-23.035-5.157h-462.014c-131.899 0-238.617 109.005-238.617 242.526s106.718 242.526 238.617 242.526h462.014c8.241 0 16.050-1.85 23.035-5.157 109.96-23.040 192.544-120.566 192.544-237.37s-82.584-214.329-192.544-237.37zM504.002 313.263h-233.384c-71.851 0-130.828-60.241-130.828-134.737s58.977-134.737 130.828-134.737h233.384c-25.798 38.538-40.844 84.881-40.844 134.737s15.046 96.199 40.844 134.737zM224.544 954.843c6.985 3.307 14.794 5.157 23.035 5.157h462.014c131.899 0 238.617-109.005 238.617-242.526s-106.718-242.526-238.617-242.526h-462.014c-8.241 0-16.050 1.85-23.035 5.157-109.96 23.040-192.544 120.566-192.544 237.37s82.584 214.329 192.544 237.37zM476.209 582.737h233.384c71.851 0 130.828 60.241 130.828 134.737s-58.977 134.737-130.828 134.737h-233.384c25.798-38.538 40.844-84.881 40.844-134.737s-15.046-96.199-40.844-134.737zM409.263 717.474c0 74.407-60.33 134.737-134.737 134.737s-134.737-60.33-134.737-134.737c0-74.407 60.33-134.737 134.737-134.737s134.737 60.33 134.737 134.737zM840.421 178.526c0 74.407-60.33 134.737-134.737 134.737s-134.737-60.33-134.737-134.737c0-74.407 60.33-134.737 134.737-134.737s134.737 60.33 134.737 134.737z" />
<glyph unicode="&#xe921;" glyph-name="gluten-free" d="M446.784 603.746c-8.095 45.914 6.025 95.919 42.359 132.254l13.714 13.714c0 0 9.143 4.571 13.714 4.571s9.143 0 13.714-4.571l13.714-13.714c59.429-54.857 59.429-150.857 4.571-205.714l-4.571-9.143v-14.613l31.157-31.157c26.67 43.618 74.799 73.198 128.843 73.198h18.286c9.143 0 18.286-9.143 22.857-18.286v-22.857c0-54.045-29.58-102.173-73.198-128.843l22.334-22.334c3.217 0.212 6.458 0.32 9.721 0.32h18.286c9.143 0 18.286-9.143 22.857-22.857v-18.286c0-3.263-0.108-6.505-0.32-9.721l80.185-80.185c44.7 62.771 70.992 139.558 70.992 222.478 0 212.109-171.924 384-384 384-82.93 0-159.72-26.284-222.491-70.979l157.275-157.275zM498.286 371.225l-13.714 13.714v-0.939c0-13.714-13.714-22.857-22.857-22.857h-18.286c-86.857 0-150.857 68.571-150.857 150.857v18.286c0 9.143 9.143 18.286 22.857 18.286h5.511l-121.944 121.944c-44.703-62.772-70.995-139.569-70.995-222.516 0-212.057 171.954-384 384-384 82.928 0 159.724 26.298 222.501 71.010l-55.892 55.892c-24.193-16.572-53.283-26.33-84.324-26.33h-18.286c-13.714 0-22.857 9.143-22.857 22.857v18.286c0 31.041 9.758 60.131 26.33 84.324l-35.473 35.473v-160.939c0-9.143-13.714-18.286-22.857-18.286-13.714 0-22.857 9.143-22.857 18.286v206.654zM1024 448c0-282.751-229.263-512-512-512s-512 229.249-512 512c0 282.806 229.237 512 512 512s512-229.194 512-512zM333.714 356.571c82.286 0 146.286-68.571 150.857-150.857v-18.286c0-13.714-13.714-22.857-22.857-22.857h-18.286c-86.857 0-150.857 68.571-150.857 150.857v18.286c0 13.714 9.143 22.857 22.857 22.857h18.286z" />
<glyph unicode="&#xe922;" glyph-name="guests" d="M78.769 170.915v5.433l224.847 134.976c18.649 11.195 24.692 35.389 13.497 54.038s-35.389 24.692-54.038 13.497l-243.961-146.45c-11.859-7.119-19.114-19.936-19.114-33.768v-44.731c0-34.055 27.71-61.765 61.735-61.765h132.637c21.752 0 39.385 17.633 39.385 39.385s-17.633 39.385-39.385 39.385h-115.603zM153.143 678.7l-0.608-6.863-0.091-130.564c-0.018-36.183 8.672-87.49 35.182-139.601 17.464-34.328 41.082-64.141 71.625-87.742 17.212-13.3 41.946-10.128 55.246 7.083s10.128 41.946-7.083 55.246c-20.811 16.081-37.168 36.728-49.582 61.129-11.56 22.723-19.109 47.46-23.31 72.267-2.503 14.778-3.312 25.962-3.31 31.567l0.089 126.702c11.139 49.598 78.651 95.094 143.475 95.094 0.651 0 1.298 0.016 1.941 0.047 7.347-0.106 14.88-0.811 22.526-2.112 21.444-3.647 41.784 10.779 45.431 32.223s-10.779 41.784-32.223 45.431c-12.626 2.147-25.227 3.241-37.675 3.241-0.822 0-1.637-0.025-2.446-0.075-100.784-1.132-203.001-71.99-219.187-163.074zM945.228 170.857h-592.040v4.288l205.784 112.263c19.095 10.417 26.13 34.341 15.713 53.436s-34.341 26.13-53.436 15.713l-226.307-123.459c-12.651-6.902-20.523-20.163-20.523-34.574v-44.731c0-34.037 27.693-61.704 61.765-61.704h626.078c33.998 0 61.735 27.684 61.735 61.704v44.731c0 14.303-7.754 27.482-20.257 34.428l-222.221 123.459c-19.014 10.564-42.992 3.713-53.555-15.301s-3.713-42.992 15.301-53.555l201.963-112.205v-4.492zM907.146 369.146c29.698 11.301 34.476 51.31 8.273 69.286-19.537 13.404-38.136 51.441-51.633 105.513-7.206 28.872-12.533 60.146-16.212 91.47-2.208 18.798-3.363 33.295-3.772 41.251l-0.548 4.827c-16.289 92.263-98.020 160.235-194.047 160.235s-177.758-67.972-194.047-160.235l-0.548-4.827c-0.409-7.955-1.564-22.452-3.772-41.251-3.679-31.324-9.005-62.598-16.212-91.47-13.497-54.072-32.095-92.109-51.633-105.513-26.22-17.988-21.415-58.028 8.316-69.302l109.798-41.636c-1.158-8.15 0.22-16.731 4.494-24.499 10.486-19.057 34.436-26.004 53.493-15.518 26.319 14.483 38.021 33.967 38.021 57.496 0 28.851-24.613 44.782-51.078 49.725l-74.043 28.078c16.326 27.22 28.959 61.638 39.057 102.093 8.108 32.483 13.977 66.945 18.019 101.357 1.411 12.011 2.495 23.179 3.297 33.238 0.346 4.338 0.592 7.847 0.752 10.431 10.489 53.427 58.884 93.062 116.086 93.062s105.597-39.635 116.086-93.062c0.161-2.585 0.406-6.094 0.752-10.431 0.802-10.059 1.886-21.227 3.297-33.238 4.042-34.413 9.911-68.875 18.019-101.357 10.105-40.484 22.749-74.921 39.091-102.15l-73.645-28.025c-27.266-5.096-51.023-21.602-51.023-51.856 0-25.572 18.617-43.313 42.321-55.738 19.265-10.099 43.069-2.669 53.168 16.596 4.208 8.027 5.372 16.842 3.906 25.125l105.966 40.324z" />
<glyph unicode="&#xe923;" glyph-name="hours" d="M482.909 364.218c0-5.111 4.198-9.309 9.309-9.309s9.309 4.198 9.309 9.309c0 5.111-4.198 9.309-9.309 9.309s-9.309-4.198-9.309-9.309zM732.459 718.758l58.682 58.682c19.995 19.995 52.413 19.995 72.408 0l41.891-41.891c19.995-19.995 19.995-52.413 0-72.408l-58.682-58.682c46.506-68.503 73.678-151.196 73.678-240.241 0-236.517-191.701-428.218-428.218-428.218s-428.218 191.701-428.218 428.218c0 219.19 164.643 399.891 377.018 425.19v68.192h-32.582c-28.277 0-51.2 22.923-51.2 51.2s22.923 51.2 51.2 51.2h167.564c28.277 0 51.2-22.923 51.2-51.2s-22.923-51.2-51.2-51.2h-32.582v-68.192c69.489-8.278 133.868-33.193 189.041-70.65zM818.036 364.218c0 179.963-145.855 325.818-325.818 325.818s-325.818-145.855-325.818-325.818c0-179.963 145.855-325.818 325.818-325.818s325.818 145.855 325.818 325.818zM354.509 482.304c-15.397 23.717-8.652 55.426 15.065 70.823s55.426 8.652 70.823-15.065l94.748-145.948c15.397-23.717 8.652-55.426-15.065-70.823s-55.426-8.652-70.823 15.065l-94.748 145.948z" />
<glyph unicode="&#xe924;" glyph-name="key" d="M458.844 400.028l-149.643-157.403 93.548-93.548c19.995-19.995 19.995-52.413 0-72.408s-52.413-19.995-72.408 0l-91.718 91.718-51.919-54.611 90.372-90.372c19.995-19.995 19.995-52.413 0-72.408s-52.413-19.995-72.408 0l-125.56 125.56c-9.868 9.799-14.928 22.673-15.104 35.624-0.152 13.043 4.581 26.041 14.198 36.086l303.874 319.631c-41.744 51.872-66.731 117.802-66.731 189.558 0 167.117 135.413 302.545 302.462 302.545 167.127 0 302.629-135.424 302.629-302.545 0-167.064-135.528-302.545-302.629-302.545-58.31 0-112.771 16.513-158.963 45.118zM489.207 504.149c34.778-29.231 79.64-46.84 128.6-46.84 110.555 0 200.229 89.643 200.229 200.145 0 110.554-89.643 200.145-200.229 200.145-110.492 0-200.062-89.58-200.062-200.145 0-58.88 25.434-111.832 65.906-148.46 1.556-1.173 3.062-2.447 4.509-3.822 0.355-0.337 0.704-0.678 1.047-1.023z" />
<glyph unicode="&#xe925;" glyph-name="list" d="M93.091 820.364c0-25.706 20.839-46.545 46.545-46.545s46.545 20.839 46.545 46.545c0 25.706-20.839 46.545-46.545 46.545s-46.545-20.839-46.545-46.545zM139.636 960c77.119 0 139.636-62.517 139.636-139.636s-62.517-139.636-139.636-139.636c-77.119 0-139.636 62.517-139.636 139.636s62.517 139.636 139.636 139.636zM418.909 820.364v0zM418.909 866.909h558.545c25.706 0 46.545-20.839 46.545-46.545s-20.839-46.545-46.545-46.545h-558.545c-25.706 0-46.545 20.839-46.545 46.545s20.839 46.545 46.545 46.545zM93.091 448c0-25.706 20.839-46.545 46.545-46.545s46.545 20.839 46.545 46.545c0 25.706-20.839 46.545-46.545 46.545s-46.545-20.839-46.545-46.545zM139.636 587.636c77.119 0 139.636-62.517 139.636-139.636s-62.517-139.636-139.636-139.636c-77.119 0-139.636 62.517-139.636 139.636s62.517 139.636 139.636 139.636zM418.909 448v0zM418.909 494.545h558.545c25.706 0 46.545-20.839 46.545-46.545s-20.839-46.545-46.545-46.545h-558.545c-25.706 0-46.545 20.839-46.545 46.545s20.839 46.545 46.545 46.545zM93.091 75.636c0-25.706 20.839-46.545 46.545-46.545s46.545 20.839 46.545 46.545c0 25.706-20.839 46.545-46.545 46.545s-46.545-20.839-46.545-46.545zM139.636 215.273c77.119 0 139.636-62.517 139.636-139.636s-62.517-139.636-139.636-139.636c-77.119 0-139.636 62.517-139.636 139.636s62.517 139.636 139.636 139.636zM418.909 75.636v0zM418.909 122.182h558.545c25.706 0 46.545-20.839 46.545-46.545s-20.839-46.545-46.545-46.545h-558.545c-25.706 0-46.545 20.839-46.545 46.545s20.839 46.545 46.545 46.545z" />
<glyph unicode="&#xe926;" glyph-name="logout" d="M667.914 733.442c127.406-63.297 209.68-193.342 209.68-338.17 0-208.4-168.949-377.355-377.355-377.355-208.393 0-377.355 168.962-377.355 377.355 0 144.804 82.271 274.853 209.666 338.173l-36.462 73.358c-154.983-77.033-255.124-235.329-255.124-411.531 0-253.636 205.639-459.275 459.275-459.275 253.65 0 459.275 205.632 459.275 459.275 0 176.23-100.148 334.527-255.152 411.534l-36.448-73.365zM459.285 960v-418.315h81.92v418.315z" />
<glyph unicode="&#xe927;" glyph-name="mvp" d="M768 345.614v-345.614c0-52.739-60.209-82.843-102.4-51.2l-124.509 93.382-124.509-93.382c-42.191-31.643-102.4-1.539-102.4 51.2v345.614c-74.789 64.029-122.182 159.131-122.182 265.295 0 192.839 156.252 349.091 349.091 349.091s349.091-156.252 349.091-349.091c0-106.164-47.393-201.266-122.182-265.295zM640 276.028c-31.358-9.247-64.554-14.21-98.909-14.21s-67.551 4.962-98.909 14.21v-148.028l60.509 45.382c22.756 17.067 54.044 17.067 76.8 0l60.509-45.382v148.028zM762.182 610.909c0 122.146-98.945 221.091-221.091 221.091s-221.091-98.945-221.091-221.091c0-122.096 98.976-221.091 221.091-221.091s221.091 98.995 221.091 221.091zM504.42 424.727c-35.346 0-64 28.654-64 64s28.654 64 64 64h81.455c35.346 0 64-28.654 64-64s-28.654-64-64-64h-81.455z" />
<glyph unicode="&#xe928;" glyph-name="no-show" d="M512 960c281.6 0 512-230.4 512-512s-230.4-512-512-512c-281.6 0-512 230.4-512 512s230.4 512 512 512zM284.444 504.889c-31.419 0-56.889-25.47-56.889-56.889s25.47-56.889 56.889-56.889h455.111c31.419 0 56.889 25.47 56.889 56.889s-25.47 56.889-56.889 56.889h-455.111z" />
<glyph unicode="&#xe929;" glyph-name="part-seated" d="M483.556 960h227.556c31.419 0 56.889-25.47 56.889-56.889s-25.47-56.889-56.889-56.889h-227.556c-31.419 0-56.889 25.47-56.889 56.889s25.47 56.889 56.889 56.889zM483.556 49.778h227.556c31.419 0 56.889-25.47 56.889-56.889s-25.47-56.889-56.889-56.889h-227.556c-31.419 0-56.889 25.47-56.889 56.889s25.47 56.889 56.889 56.889zM142.222 618.667c31.419 0 56.889-25.47 56.889-56.889v-227.556c0-31.419-25.47-56.889-56.889-56.889s-56.889 25.47-56.889 56.889v227.556c0 31.419 25.47 56.889 56.889 56.889zM369.778 789.333h455.111c62.838 0 113.778-50.94 113.778-113.778v-455.111c0-62.838-50.94-113.778-113.778-113.778h-455.111c-62.838 0-113.778 50.94-113.778 113.778v455.111c0 62.838 50.94 113.778 113.778 113.778z" />
<glyph unicode="&#xe92a;" glyph-name="people" d="M544.582 825.018c0 17.971-14.611 32.582-32.582 32.582-17.994 0-32.582-14.593-32.582-32.582s14.588-32.582 32.582-32.582c17.971 0 32.582 14.611 32.582 32.582zM646.982 825.018c0-74.525-60.457-134.982-134.982-134.982-74.556 0-134.982 60.447-134.982 134.982s60.426 134.982 134.982 134.982c74.525 0 134.982-60.457 134.982-134.982zM479.023 328.678c-3.507 28.059-29.097 47.961-57.155 44.454s-47.961-29.097-44.454-57.155l41.891-335.127c3.203-25.622 24.983-44.849 50.805-44.849h83.782c25.821 0 47.602 19.227 50.805 44.849l41.891 335.127c3.507 28.059-16.395 53.648-44.454 57.155s-53.648-16.395-57.155-44.454l-32.977-263.818-32.977 263.818zM395.636 488.173c0 28.277-22.923 51.2-51.2 51.2s-51.2-22.923-51.2-51.2v-165.846c0-28.277 22.923-51.2 51.2-51.2h83.782c28.277 0 51.2 22.923 51.2 51.2s-22.923 51.2-51.2 51.2h-32.582v114.646zM595.782 373.527c-28.277 0-51.2-22.923-51.2-51.2s22.923-51.2 51.2-51.2h83.782c28.277 0 51.2 22.923 51.2 51.2v165.846c0 28.277-22.923 51.2-51.2 51.2s-51.2-22.923-51.2-51.2v-114.646h-32.582zM730.764 489.891c0 120.772-97.992 218.764-218.764 218.764-120.831 0-218.764-97.967-218.764-218.764 0-28.277 22.923-51.2 51.2-51.2s51.2 22.923 51.2 51.2c0 64.251 52.095 116.364 116.364 116.364 64.218 0 116.364-52.145 116.364-116.364 0-28.277 22.923-51.2 51.2-51.2s51.2 22.923 51.2 51.2zM837.818 783.127c0 17.973-14.614 32.582-32.624 32.582-17.978 0-32.54-14.577-32.54-32.582s14.562-32.582 32.54-32.582c18.010 0 32.624 14.609 32.624 32.582zM940.218 783.127c0-74.535-60.468-134.982-135.024-134.982s-134.94 60.447-134.94 134.982c0 74.535 60.384 134.982 134.94 134.982s135.024-60.447 135.024-134.982zM805.167 134.953l-10.882 69.61c-4.368 27.938-30.556 47.045-58.494 42.677s-47.045-30.556-42.677-58.494l19.647-125.673c3.896-24.921 25.362-43.292 50.586-43.292h83.782c25.271 0 46.762 18.438 50.605 43.415l41.891 272.291c4.3 27.948-14.871 54.090-42.819 58.39s-54.090-14.871-58.39-42.819l-33.247-216.105zM889.018 394.469c-28.277 0-51.2-22.923-51.2-51.2s22.923-51.2 51.2-51.2h83.782c28.277 0 51.2 22.923 51.2 51.2v115.451c0 28.277-22.923 51.2-51.2 51.2s-51.2-22.923-51.2-51.2v-64.251h-32.582zM1024 460.601c0 129.271-64.554 227.1-176.873 227.1-28.277 0-51.2-22.923-51.2-51.2s22.923-51.2 51.2-51.2c44.638 0 74.473-45.213 74.473-124.7 0-28.277 22.923-51.2 51.2-51.2s51.2 22.923 51.2 51.2zM83.782 783.127c0 74.535 60.468 134.982 135.024 134.982s134.94-60.447 134.94-134.982c0-74.535-60.384-134.982-134.94-134.982s-135.024 60.447-135.024 134.982zM186.182 783.127c0-17.973 14.614-32.582 32.624-32.582 17.978 0 32.54 14.577 32.54 32.582s-14.562 32.582-32.54 32.582c-18.010 0-32.624-14.609-32.624-32.582zM185.574 351.058c-4.3 27.948-30.442 47.119-58.39 42.819s-47.119-30.442-42.819-58.39l41.891-272.291c3.843-24.977 25.334-43.415 50.605-43.415h83.782c25.224 0 46.69 18.371 50.586 43.292l19.647 125.673c4.368 27.938-14.74 54.126-42.677 58.494s-54.126-14.74-58.494-42.677l-10.882-69.61-33.247 216.105zM102.4 394.469v64.251c0 28.277-22.923 51.2-51.2 51.2s-51.2-22.923-51.2-51.2v-115.451c0-28.277 22.923-51.2 51.2-51.2h83.782c28.277 0 51.2 22.923 51.2 51.2s-22.923 51.2-51.2 51.2h-32.582zM102.4 460.601c0 79.487 29.835 124.7 74.473 124.7 28.277 0 51.2 22.923 51.2 51.2s-22.923 51.2-51.2 51.2c-112.318 0-176.873-97.829-176.873-227.1 0-28.277 22.923-51.2 51.2-51.2s51.2 22.923 51.2 51.2z" />
<glyph unicode="&#xe92b;" glyph-name="person" d="M258.31 768.032l-0.128-256c-0.018-35.346 28.622-64.014 63.968-64.032s64.014 28.622 64.032 63.968l0.128 256c0.018 35.346-28.622 64.014-63.968 64.032s-64.014-28.622-64.032-63.968zM770.189 512.032l-0.128 256c-0.018 35.346-28.686 63.986-64.032 63.968s-63.986-28.686-63.968-64.032l0.128-256c0.018-35.346 28.686-63.986 64.032-63.968s63.986 28.686 63.968 64.032zM259.307 779.912c-6.579-34.729 16.242-68.215 50.97-74.793s68.215 16.242 74.793 50.97c6.807 35.934 69.039 75.784 129.118 75.784 1.127 0 2.248 0.029 3.361 0.087 59-1.444 119.071-40.506 125.754-75.85 6.567-34.731 40.046-57.562 74.777-50.994s57.562 40.046 50.994 74.777c-19.634 103.834-138.696 180.109-254.886 180.109-1.577 0-3.142-0.057-4.69-0.169-114.688-2.014-230.805-77.578-250.191-179.919zM642.039 506.607c1.389-30.98-4.703-71.438-24.259-109.206-6.616-12.777-14.56-24.613-23.948-35.412-23.19-26.675-20.366-67.099 6.31-90.289s67.099-20.366 90.289 6.31c16.218 18.655 29.832 38.939 41.015 60.536 31.504 60.842 40.774 122.4 38.485 173.195-0.207 3.907-0.207 3.907-0.347 5.652-2.978 35.221-33.945 61.358-69.165 58.379s-61.358-33.945-58.379-69.165zM258.788 517.393c-0.14-1.745-0.14-1.745-0.347-5.652-2.289-50.795 6.981-112.354 38.485-173.195 11.183-21.597 24.797-41.881 41.015-60.536 23.19-26.675 63.614-29.5 90.289-6.31s29.5 63.614 6.31 90.289c-9.388 10.798-17.332 22.635-23.948 35.412-19.556 37.767-25.648 78.226-24.281 108.578 3 35.848-23.137 66.814-58.358 69.793s-66.187-23.159-69.165-58.379zM995.112 183.881l-320.064 192c-30.311 18.183-69.623 8.351-87.805-21.96s-8.351-69.623 21.96-87.805l320.064-192c30.311-18.183 69.623-8.351 87.805 21.96s8.351 69.623-21.96 87.805zM353.459 374.96l-320.064-190.976c-30.353-18.111-40.278-57.4-22.166-87.753s57.4-40.278 87.753-22.166l320.064 190.976c30.353 18.111 40.278 57.4 22.166 87.753s-57.4 40.278-87.753 22.166zM2.189 128.998v-64c0-70.546 57.454-128 128-128h768c70.546 0 128 57.454 128 128v64c0 35.346-28.654 64-64 64s-64-28.654-64-64v-64h-768v64c0 35.346-28.654 64-64 64s-64-28.654-64-64z" />
<glyph unicode="&#xe92c;" glyph-name="pescatarian" d="M883.923 873.776c24.34-8.113 44.808-28.581 50.912-47.711 77.36-175.818 49.34-378.779-71.906-522.713l-34.301-146.229c-0.1-6.422-1.182-12.834-3.238-19.004-1.727-5.18-3.797-9.548-6.169-13.39-8.065-15.833-13.399-24.172-24.002-34.775-50.158-50.158-130.655-47.719-182.609 4.236-11.082 11.082-21.596 25.305-31.211 42.090-42.113-7.998-85.398-10.154-129.941-6.731l-12.526-52.995c-0.108-6.393-1.19-12.774-3.237-18.915-1.595-4.784-3.483-8.876-5.63-12.5-1.46-3.036-3.592-7.414-4.832-9.717-4.706-8.739-10.222-16.462-17.591-23.831-46.82-46.82-118.846-46.82-165.666 0-16.49 16.49-29.119 38.212-41.015 66.117-4.24 9.946-8.284 20.488-12.415 32.139-0.74 2.086-1.466 4.16-2.198 6.275-40.541 14.080-76.998 32.33-98.98 54.312-46.152 46.152-47.49 122.412-2.118 167.784 10.792 10.792 23.803 18.96 37.152 24.444 3.614 1.437 5.593 2.155 7.572 2.815l35.317 11.772 26.324-26.324c-15.805 15.805-38.793 20.403-58.729 13.757-9.87-3.29-16.301-7.884-22.221-13.757l12.093 12.093 79.57 18.807c-3.614 44.443-1.072 89.908 7.425 133.88-20.401 10.611-35.545 21.12-48.258 33.833-52.478 52.478-56.090 130.755-4.236 182.609 6.801 6.801 14.166 12.292 22.456 17.265 3.947 2.368 7.042 4.057 15.556 8.040 1.062 0.497 2.208 1.029 3.451 1.603 1.62 0.748 3.404 1.567 5.378 2.469l-7.89-3.268 38.832 19.416 30.699-30.699c-15.805 15.805-38.793 20.403-58.729 13.757-9.87-3.29-16.301-7.884-22.221-13.757l11.405 11.405 176.835 47.444c145.854 115.434 342.471 141.021 510.891 67.952zM170.434 253.033c-1.531-1.531-1.677-1.615-2.366-1.844l-4.487 13.462 3.531-14.938 5.926 1.401c1.197 0.438 2.349 0.897 3.46 1.374-1.639 1.115-2.954 2.151-3.9 3.087 0.165-0.219-0.063-0.44-2.164-2.541zM245.108 646.444c-1.335-0.445-2.681-0.844-4.037-1.198-1.273-2.304-0.078-4.834 5.608-10.52 6.301-6.301 23.592-15.667 56.587-29.253l51.015-21.006-16.456-52.659c-18.325-58.64-21.685-124.393-9.159-183.443l12.214-57.58-163.769-38.709c13.044-8.613 44.399-21.622 73.174-29.844l30.549-8.728 10.047-30.141c5.25-15.946 8.084-24.448 11.207-33.255 3.355-9.462 6.533-17.749 9.692-25.157 3.618-8.488 7.084-15.424 9.976-20.404l37.993 160.739 56.006-9.883c65.255-11.516 125.039-8.798 181.238 8.764l54.367 16.99 20-53.333c8.986-23.962 19.153-41.168 26.433-48.448 5.065-5.065 8.909-5.963 11.144-4.981l43.639 186.041 10.341 11.49c94.303 104.781 120.281 255.672 66.506 394.2-132.863 52.636-281.095 29.47-389.736-61.361l-10.194-8.523-180.872-48.527c-1.129-0.442-2.299-0.866-3.514-1.271zM323.627 101.473c-1.403-2.541-4.067-8.158-4.441-8.888 0.454 0.81 1.208 1.896 2.174 3.013 0.73 2.19 1.47 4.094 2.267 5.875zM627.303 605.896c-35.285-35.285-92.493-35.285-127.778 0s-35.285 92.493 0 127.778c35.285 35.285 92.493 35.285 127.778 0s35.285-92.493 0-127.778zM542.118 691.082c-11.762-11.762-11.762-30.831 0-42.593s30.831-11.762 42.593 0c11.762 11.762 11.762 30.831 0 42.593s-30.831 11.762-42.593 0z" />
<glyph unicode="&#xe92d;" glyph-name="phone" d="M590.017 298.038l126.93 63.465c19.444 9.722 42.825 6.81 59.291-7.383l202.093-174.204c22.699-19.567 25.077-53.894 5.292-76.403l-118.586-134.848c-95.226-95.226-334.374 38.22-566.436 270.462-230.923 230.834-360.886 466.502-268.294 559.136l4.045 3.975 131.966 117.214c22.445 19.936 56.853 17.69 76.515-4.995l175.174-202.093c14.274-16.468 17.226-39.911 7.48-59.403l-63.465-126.93 227.994-227.994zM197.075 802.682l-87.905-77.907-1.713-1.776c-26.167-26.185 82.037-222.398 267.37-407.659 185.935-186.079 386.497-297.994 411.347-273.185l80.562 91.648-133.688 115.239-129.57-64.785c-20.749-10.374-45.808-6.308-62.212 10.096l-282.93 282.93c-16.403 16.403-20.47 41.463-10.096 62.212l64.737 129.474-115.903 133.714z" />
<glyph unicode="&#xe92e;" glyph-name="profile" d="M187.084 171.435l217.606 131.112c20.184 12.161 46.404 5.657 58.565-14.526s5.657-46.404-14.526-58.565l-197.643-119.083c72.131-55.821 162.641-89.039 260.914-89.039 98.291 0 188.817 33.23 260.955 89.071l-197.679 119.037c-20.187 12.156-26.697 38.375-14.541 58.561s38.375 26.697 58.561 14.541l217.656-131.066c63.432 74.47 101.714 171.021 101.714 276.522 0 235.609-191.046 426.667-426.667 426.667s-426.667-191.058-426.667-426.667c0-105.521 38.297-202.089 101.75-276.565zM150.46 85.452c-0.948 0.869-1.862 1.786-2.737 2.75-91.338 92.468-147.723 219.543-147.723 359.798 0 282.736 229.25 512 512 512s512-229.264 512-512c0-282.793-229.222-512-512-512-141.134 0-268.927 57.095-361.54 149.452zM386.708 421.287c3.439-21.796 9.613-43.508 19.017-63.343 11.284-23.803 26.458-43.229 46.007-57.384 19.086-13.82 23.356-40.495 9.536-59.581s-40.495-23.356-59.581-9.536c-31.959 23.14-55.973 53.885-73.070 89.947-22.598 47.667-29.968 94.377-29.951 127.553l0.128 140.852 0.74 7.872c16.030 84.955 115.473 149.017 212.465 149.017 97.014 0 196.436-63.982 212.465-148.931l0.74-7.872 0.128-140.851c0.018-33.178-7.346-79.891-29.925-127.564-17.097-36.099-41.118-66.87-73.095-90.023-19.086-13.82-45.762-9.55-59.581 9.536s-9.55 45.762 9.536 59.581c19.555 14.159 34.733 33.602 46.019 57.431 9.398 19.843 15.569 41.563 19.006 63.367 2.049 13.001 2.709 22.805 2.707 27.607l-0.124 136.226c-10.138 38.677-69.963 76.159-127.876 76.159-57.884 0-117.734-37.538-127.876-76.244l-0.124-136.222c-0.002-4.807 0.658-14.605 2.708-27.598z" />
<glyph unicode="&#xe92f;" glyph-name="quote" d="M450.56 278.244c0 114.688-70.997 188.416-193.877 188.416-24.576 0-43.691-5.461-57.344-13.653 5.461 125.611 120.149 210.261 223.915 226.645v166.571c-172.032-16.384-423.253-139.264-423.253-505.173 0-144.725 92.843-262.144 237.568-262.144 128.341 0 212.992 92.843 212.992 199.339zM988.501 278.244c0 114.688-70.997 188.416-193.877 188.416-24.576 0-43.691-5.461-57.344-13.653 5.461 125.611 120.149 210.261 223.915 226.645v166.571c-172.032-16.384-423.253-139.264-423.253-505.173 0-144.725 92.843-262.144 237.568-262.144 128.341 0 212.992 92.843 212.992 199.339z" />
<glyph unicode="&#xe930;" glyph-name="refund" d="M732.018 651.484l62.082 63.894c-155.307 153.6-406.756 159.289-562.062 5.689-155.307-154.169-155.307-402.773 0-556.942s406.756-154.169 562.062 0c77.369 76.231 116.053 171.236 116.053 283.876h113.778c0-112.64-50.062-264.533-150.187-363.52-199.68-197.973-523.947-197.973-723.627 0-199.111 197.404-200.818 518.258-1.138 715.662s519.964 197.404 719.644 0l57.615 59.303c21.893 22.535 57.91 23.055 80.445 1.162 11.026-10.712 17.247-25.43 17.247-40.803v-207.964c0-31.419-25.47-56.889-56.889-56.889h-194.223c-31.419 0-56.889 25.47-56.889 56.889 0 14.804 5.771 29.026 16.088 39.644zM351.411 586.339l102.161-147.934c17.854-25.853 53.285-32.338 79.139-14.484s32.338 53.285 14.484 79.139l-102.161 147.934c-17.854 25.853-53.285 32.338-79.139 14.484s-32.338-53.285-14.484-79.139zM649.84 586.339c17.854 25.853 11.369 61.285-14.484 79.139s-61.285 11.369-79.139-14.484l-102.161-147.934c-6.535-9.464-10.049-20.686-10.077-32.187l-0.478-193.399c-0.078-31.419 25.329-56.952 56.748-57.029s56.952 25.329 57.029 56.748l0.434 175.742 92.127 133.404zM568.889 459.378h-136.533c-31.419 0-56.889-25.47-56.889-56.889s25.47-56.889 56.889-56.889h136.533c31.419 0 56.889 25.47 56.889 56.889s-25.47 56.889-56.889 56.889z" />
<glyph unicode="&#xe931;" glyph-name="role" d="M298.618 277.602c-16.464 20.752-30.634 43.419-42.653 67.696-35.978 72.672-47.765 144.209-47.735 194.597l0.125 183.071 0.789 9.151c21.958 126.917 161.496 226.177 299.504 227.763 1.109 0.068 2.227 0.103 3.353 0.103 139.092 0 280.721-99.838 302.856-227.783l0.789-9.151 0.125-183.111c0.030-50.404-11.77-121.962-47.787-194.653-11.872-23.961-25.841-46.353-42.043-66.884l61.316-32.732c26.258-14.017 36.181-46.667 22.164-72.925s-46.667-36.181-72.925-22.164l-123.458 65.905c-5.216 2.57-10.076 6.019-14.345 10.319-8.86 8.899-14.226 20.546-15.438 32.766-1.020 12.408 1.786 24.148 8.119 34.131 3.606 5.687 8.102 10.47 13.212 14.291 27.942 22.468 50.005 51.223 66.815 85.149 15.883 32.056 26.255 66.954 32.027 101.957 3.445 20.889 4.559 36.737 4.555 44.754l-0.121 178.014c-15.048 69.756-105.619 133.050-193.206 134.309-0.879-0.043-1.764-0.064-2.654-0.064-88.403 0-180.659-63.867-195.859-134.328l-0.121-177.962c-0.005-8.028 1.109-23.873 4.55-44.759 5.766-34.996 16.127-69.889 31.994-101.939 16.879-34.094 39.059-62.964 67.175-85.474 3.060-2.325 5.897-4.999 8.444-8.003 4.218-4.954 7.417-10.537 9.565-16.448 2.745-7.503 3.716-15.337 3.067-22.97-0.621-7.475-2.805-14.88-6.612-21.7-3.089-5.559-7.182-10.614-12.195-14.865-3.11-2.647-6.466-4.893-9.995-6.729l-304.223-167.226v-5.934h487.502c29.765 0 53.895-24.129 53.895-53.895s-24.129-53.895-53.895-53.895h-510.871c-46.546 0-84.421 37.911-84.421 84.505v61.095c0 19.66 10.705 37.76 27.933 47.23l270.684 148.79zM716.693 152.942l82.36-82.36 128.968 161.21c18.594 23.243 52.51 27.011 75.752 8.417s27.011-52.51 8.417-75.752l-166.584-208.23c-20.066-25.083-57.48-27.155-80.194-4.442l-124.938 124.938c-21.047 21.047-21.047 55.171 0 76.219s55.171 21.047 76.219 0z" />
<glyph unicode="&#xe932;" glyph-name="rules" d="M372.475 857.6c8.903 58.93 63.276 102.4 126.725 102.4s117.822-43.47 126.725-102.4h154.875c84.831 0 153.6-68.769 153.6-153.6v-614.4c0-84.831-68.769-153.6-153.6-153.6h-563.2c-84.831 0-153.6 68.769-153.6 153.6v614.4c0 84.831 68.769 153.6 153.6 153.6h154.875zM217.6 38.4h563.2c28.277 0 51.2 22.923 51.2 51.2v614.4c0 28.277-22.923 51.2-51.2 51.2h-563.2c-28.277 0-51.2-22.923-51.2-51.2v-614.4c0-28.277 22.923-51.2 51.2-51.2zM576 755.2h102.4v-51.2c0-58.962-37.442-102.4-102.4-102.4h-153.6c-64.958 0-102.4 43.438-102.4 102.4v51.2h102.4v-51.2h153.6v51.2zM268.8 396.8v102.4h409.6v-102.4h-409.6zM268.8 243.2v102.4h307.2v-102.4h-307.2z" />
<glyph unicode="&#xe933;" glyph-name="search" d="M788.523 261.995l216.74-216.74c24.994-24.994 24.994-65.516 0-90.51s-65.516-24.994-90.51 0l-216.741 216.741c-72.798-54.125-163.002-86.153-260.679-86.153-241.511 0-437.333 195.805-437.333 437.287 0 241.526 195.82 437.38 437.333 437.38s437.333-195.854 437.333-437.38c0-97.654-32.024-187.839-86.144-260.625zM746.667 522.62c0 170.838-138.518 309.38-309.333 309.38s-309.333-138.542-309.333-309.38c0-170.786 138.512-309.287 309.333-309.287s309.333 138.5 309.333 309.287z" />
<glyph unicode="&#xe934;" glyph-name="seated" d="M384 960h256c35.346 0 64-28.654 64-64v0c0-35.346-28.654-64-64-64h-256c-35.346 0-64 28.654-64 64v0 0c0 35.346 28.654 64 64 64zM384 64h256c35.346 0 64-28.654 64-64s-28.654-64-64-64h-256c-35.346 0-64 28.654-64 64s28.654 64 64 64zM64 640v0c35.346 0 64-28.654 64-64v-256c0-35.346-28.654-64-64-64s-64 28.654-64 64v256c0 35.346 28.654 64 64 64v0zM960 640c35.346 0 64-28.654 64-64v-256c0-35.346-28.654-64-64-64s-64 28.654-64 64v256c0 35.346 28.654 64 64 64zM320 768h384c70.692 0 128-57.308 128-128v-384c0-70.692-57.308-128-128-128h-384c-70.692 0-128 57.308-128 128v384c0 70.692 57.308 128 128 128z" />
<glyph unicode="&#xe935;" glyph-name="settings" d="M612.174 448.010c0 55.325-44.849 100.174-100.174 100.174s-100.174-44.849-100.174-100.174c0-55.325 44.849-100.174 100.174-100.174s100.174 44.849 100.174 100.174zM697.507 448.010c0-102.453-83.054-185.507-185.507-185.507s-185.507 83.054-185.507 185.507c0 102.453 83.054 185.507 185.507 185.507s185.507-83.054 185.507-185.507zM1024 450.506c0-61.757-47.654-113.050-109.244-117.586l-11.758-0.866c-16.801-1.234-31.3-11.826-38.117-28.41-6.44-15.516-3.601-33.265 7.34-45.94l7.705-8.927c40.354-46.755 37.793-116.727-5.87-160.408-43.662-43.68-113.626-46.28-160.409-5.962l-8.925 7.692c-12.661 10.919-30.248 13.563-47.145 6.378-15.215-6.256-25.952-21.275-27.194-38.188l-0.942-12.988c-4.468-61.601-55.749-109.297-117.512-109.297-61.766 0-113.041 47.714-117.478 109.321l-0.932 12.946c-1.269 17.284-12.283 32.727-28.369 39.341-15.512 6.438-33.233 3.603-45.903-7.343l-8.988-7.756c-46.758-40.347-116.727-37.771-160.393 5.903s-46.221 113.648-5.856 160.391l7.77 8.998c10.982 12.724 13.746 30.481 6.877 47.051-6.347 15.439-20.905 25.969-37.621 27.197l-11.789 0.868c-61.59 4.534-109.246 55.826-109.246 117.583 0 61.759 47.666 113.048 109.259 117.564l11.824 0.867c16.778 1.232 31.295 11.825 38.056 28.267 6.438 15.512 3.604 33.243-7.321 45.9l-7.827 9.070c-40.343 46.746-37.767 116.705 5.904 160.358 43.673 43.655 113.642 46.185 160.354 5.799l9.044-7.82c12.828-11.073 30.755-13.946 47.048-7.341 15.655 6.455 25.957 20.541 27.159 37.042l0.789 10.59c4.585 61.582 55.887 109.206 117.639 109.206 61.75 0 113.056-47.612 117.661-109.19l0.79-10.567c1.195-16.273 11.38-29.874 28.41-36.872 15.499-6.433 33.223-3.591 45.898 7.36l8.959 7.733c46.749 40.35 116.715 37.784 160.382-5.883s46.239-113.629 5.899-160.385l-7.728-8.957c-10.984-12.726-13.737-30.491-6.82-47.143 6.346-15.425 20.901-25.948 37.616-27.165l11.747-0.862c61.593-4.521 109.256-55.811 109.256-117.569zM938.667 450.506c0 17.053-13.161 31.216-30.169 32.465l-11.722 0.86c-48.926 3.562-91.651 34.45-110.254 79.669-19.178 46.164-11.112 98.203 21.075 135.496l7.723 8.951c11.143 12.915 10.432 32.239-1.629 44.3-12.058 12.058-31.377 12.766-44.286 1.625l-8.944-7.72c-37.105-32.057-89.082-40.39-134.241-21.646-46.335 19.039-77.34 60.443-80.938 109.438l-0.786 10.51c-1.275 17.043-15.475 30.221-32.565 30.221-17.082 0-31.273-13.174-32.542-30.209l-0.783-10.522c-3.558-48.838-34.36-90.953-79.965-109.758-46.062-18.676-97.924-10.365-135.131 21.752l-9.069 7.841c-12.88 11.136-32.174 10.438-44.216-1.599-12.052-12.047-12.762-31.353-1.629-44.253l7.826-9.068c32.026-37.105 40.333-89.074 21.588-134.236-18.959-46.108-61.541-77.181-110.679-80.79l-11.829-0.867c-17.006-1.247-30.166-15.408-30.166-32.459 0-17.059 13.164-31.228 30.177-32.48l11.782-0.867c48.926-3.593 91.637-34.487 110.24-79.737 19.11-46.097 11.017-98.097-21.161-135.378l-7.777-9.006c-11.145-12.906-10.44-32.227 1.617-44.286 12.060-12.062 31.385-12.774 44.299-1.63l8.969 7.739c37.103 32.054 89.079 40.371 134.25 21.622 46.087-18.949 77.274-62.677 80.897-112.020l0.937-13.006c1.223-16.973 15.349-30.118 32.365-30.118 17.030 0 31.17 13.151 32.402 30.137l0.945 13.025c3.597 48.985 34.537 92.269 79.374 110.7 46.186 19.649 98.369 11.803 135.791-20.47l8.914-7.682c12.934-11.147 32.278-10.428 44.349 1.648 12.065 12.070 12.773 31.405 1.622 44.325l-7.702 8.924c-32.044 37.121-40.358 89.11-21.613 134.273 19.004 46.238 61.563 77.328 110.729 80.938l11.749 0.865c17.014 1.253 30.178 15.423 30.178 32.483z" />
<glyph unicode="&#xe936;" glyph-name="shifs" d="M139.141 635.034c66.106 136.032 210.068 222.566 372.859 222.566 226.184 0 409.6-183.405 409.6-409.6 0-226.168-183.432-409.6-409.6-409.6-226.222 0-409.6 183.401-409.6 409.6 0 28.277-22.923 51.2-51.2 51.2s-51.2-22.923-51.2-51.2c0-282.75 229.221-512 512-512 282.722 0 512 229.278 512 512 0 282.751-229.264 512-512 512-201.3 0-381.396-108.255-464.959-280.209-12.359-25.433-1.761-56.070 23.672-68.429s56.070-1.761 68.429 23.672zM563.2 396.8v307.2c0 28.277-22.923 51.2-51.2 51.2s-51.2-22.923-51.2-51.2v-307.2c0-28.277 22.923-51.2 51.2-51.2s51.2 22.923 51.2 51.2zM512 345.6h204.8c28.277 0 51.2 22.923 51.2 51.2s-22.923 51.2-51.2 51.2h-204.8c-28.277 0-51.2-22.923-51.2-51.2s22.923-51.2 51.2-51.2zM153.6 704v153.6c0 28.277-22.923 51.2-51.2 51.2s-51.2-22.923-51.2-51.2v-204.8c0-28.277 22.923-51.2 51.2-51.2h204.8c28.277 0 51.2 22.923 51.2 51.2s-22.923 51.2-51.2 51.2h-153.6z" />
<glyph unicode="&#xe937;" glyph-name="smoker" d="M154.953 289.474c-28.466 12.674-41.269 46.025-28.595 74.492l66.758 149.943c12.674 28.466 46.025 41.269 74.492 28.595l712.228-317.105c28.466-12.674 41.269-46.025 28.595-74.492l-66.758-149.943c-12.674-28.466-46.025-41.269-74.492-28.595l-712.228 317.105zM861.536 98.403l20.862 46.857-609.143 271.208-20.862-46.857 609.143-271.208zM116.987 368.137c-12.674-28.466-46.025-41.269-74.492-28.595s-41.269 46.025-28.595 74.492l66.758 149.943c12.674 28.466 46.025 41.269 74.492 28.595s41.269-46.025 28.595-74.492l-66.758-149.943zM343.713 813.617c-21.51 3.697-44.206 1.95-66-6.173-65.936-24.521-98.588-97.858-72.675-163.304 11.471-28.972 44.257-43.159 73.229-31.689s43.159 44.257 31.689 73.229c-2.629 6.641 0.435 13.524 7.13 16.013 7.475 2.786 16.403-1.17 19.403-8.614 0.009-0.022 0.018-0.046 0.027-0.068 0.875-2.205 1.872-4.322 2.981-6.348 13.466-24.63 43.492-35.925 70.257-25.318 26.239 10.398 40.342 38.279 34.237 64.968-0.641 2.792-1.5 5.571-2.589 8.316-0.007 0.020-0.016 0.039-0.023 0.060-6.12 15.603 1.403 32.435 17.093 38.254 16.622 6.187 35.796-2.35 42.348-18.854 11.498-28.962 44.296-43.12 73.257-31.622s43.12 44.296 31.622 73.257c-29.186 73.518-112.423 110.579-186.527 82.996-33.627-12.471-59.642-36.109-75.457-65.103zM716.758 101.102c-12.674-28.466-46.025-41.269-74.492-28.595s-41.269 46.025-28.595 74.492l66.758 149.943c12.674 28.466 46.025 41.269 74.492 28.595s41.269-46.025 28.595-74.492l-66.758-149.943z" />
<glyph unicode="&#xe938;" glyph-name="status" d="M512-64c-282.77 0-512 229.23-512 512s229.23 512 512 512c282.77 0 512-229.23 512-512s-229.23-512-512-512zM512 38.4c226.216 0 409.6 183.384 409.6 409.6s-183.384 409.6-409.6 409.6c-226.216 0-409.6-183.384-409.6-409.6s183.384-409.6 409.6-409.6zM460.8 422.4c0-42.415-34.385-76.8-76.8-76.8s-76.8 34.385-76.8 76.8c0 42.415 34.385 76.8 76.8 76.8s76.8-34.385 76.8-76.8zM716.8 422.4c0-42.415-34.385-76.8-76.8-76.8s-76.8 34.385-76.8 76.8c0 42.415 34.385 76.8 76.8 76.8s76.8-34.385 76.8-76.8z" />
<glyph unicode="&#xe939;" glyph-name="staffs" d="M342.874 661.355l-0.085-170.667c-0.012-23.564 19.081-42.676 42.645-42.688s42.676 19.081 42.688 42.645l0.085 170.667c0.012 23.564-19.081 42.676-42.645 42.688s-42.676-19.081-42.688-42.645zM684.126 490.688l-0.085 170.667c-0.012 23.564-19.124 42.657-42.688 42.645s-42.657-19.124-42.645-42.688l0.085-170.667c0.012-23.564 19.124-42.657 42.688-42.645s42.657 19.124 42.645 42.688zM343.538 669.274c-4.386-23.152 10.828-45.476 33.98-49.862s45.476 10.828 49.862 33.98c4.538 23.956 46.026 50.522 86.079 50.522 0.751 0 1.498 0.019 2.24 0.058 39.334-0.963 79.38-27.004 83.836-50.567 4.378-23.154 26.697-38.374 49.851-33.996s38.374 26.697 33.996 49.851c-13.090 69.223-92.464 120.072-169.924 120.072-1.052 0-2.094-0.038-3.127-0.113-76.458-1.343-153.87-51.719-166.794-119.946zM598.693 487.071c0.926-20.653-3.136-47.626-16.173-72.804-4.41-8.518-9.707-16.409-15.965-23.608-15.46-17.783-13.577-44.733 4.206-60.193s44.733-13.577 60.193 4.206c10.812 12.437 19.888 25.959 27.343 40.357 21.002 40.561 27.182 81.6 25.657 115.464-0.138 2.604-0.138 2.604-0.232 3.768-1.986 23.48-22.63 40.905-46.11 38.92s-40.905-22.63-38.92-46.11zM343.192 494.262c-0.094-1.164-0.094-1.164-0.232-3.768-1.526-33.863 4.654-74.902 25.657-115.464 7.455-14.398 16.532-27.921 27.343-40.357 15.46-17.783 42.41-19.667 60.193-4.206s19.667 42.41 4.206 60.193c-6.258 7.199-11.555 15.090-15.965 23.608-13.037 25.178-17.099 52.151-16.187 72.385 2 23.899-15.425 44.543-38.905 46.529s-44.125-15.439-46.11-38.92zM834.074 271.921l-213.376 128c-20.207 12.122-46.415 5.567-58.537-14.64s-5.567-46.415 14.64-58.537l213.376-128c20.207-12.122 46.415-5.567 58.537 14.64s5.567 46.415-14.64 58.537zM406.306 399.307l-213.376-127.317c-20.236-12.074-26.852-38.267-14.778-58.502s38.267-26.852 58.502-14.778l213.376 127.317c20.236 12.074 26.852 38.267 14.778 58.502s-38.267 26.852-58.502 14.778zM172.126 235.332v-42.667c0-47.031 38.303-85.333 85.333-85.333h512c47.031 0 85.333 38.303 85.333 85.333v42.667c0 23.564-19.103 42.667-42.667 42.667s-42.667-19.103-42.667-42.667v-42.667h-512v42.667c0 23.564-19.103 42.667-42.667 42.667s-42.667-19.103-42.667-42.667zM918.75 874.667h-813.483c-10.868 0-19.925-9.057-19.925-19.925v-813.483c0-10.868 9.057-19.925 19.925-19.925h813.483c10.868 0 19.925 9.057 19.925 19.925v813.483c0 10.868-9.057 19.925-19.925 19.925zM918.75 960c57.996 0 105.259-47.263 105.259-105.259v-813.483c0-57.996-47.263-105.259-105.259-105.259h-813.483c-57.996 0-105.259 47.263-105.259 105.259v813.483c0 57.996 47.263 105.259 105.259 105.259h813.483z" />
<glyph unicode="&#xe93a;" glyph-name="timeline" d="M46.545 913.455v0zM46.545 960c25.706 0 46.545-20.839 46.545-46.545v-930.909c0-25.706-20.839-46.545-46.545-46.545s-46.545 20.839-46.545 46.545v930.909c0 25.706 20.839 46.545 46.545 46.545zM512 913.455v0zM512 960c25.706 0 46.545-20.839 46.545-46.545v-930.909c0-25.706-20.839-46.545-46.545-46.545s-46.545 20.839-46.545 46.545v930.909c0 25.706 20.839 46.545 46.545 46.545zM977.455 913.455v0zM977.455 960c25.706 0 46.545-20.839 46.545-46.545v-930.909c0-25.706-20.839-46.545-46.545-46.545s-46.545 20.839-46.545 46.545v930.909c0 25.706 20.839 46.545 46.545 46.545zM186.182 727.273v0zM186.182 820.364h186.182c51.413 0 93.091-41.678 93.091-93.091s-41.678-93.091-93.091-93.091h-186.182c-51.413 0-93.091 41.678-93.091 93.091s41.678 93.091 93.091 93.091zM279.273 448v0zM279.273 541.091h465.455c51.413 0 93.091-41.678 93.091-93.091s-41.678-93.091-93.091-93.091h-465.455c-51.413 0-93.091 41.678-93.091 93.091s41.678 93.091 93.091 93.091zM651.636 168.727v0zM651.636 261.818h186.182c51.413 0 93.091-41.678 93.091-93.091s-41.678-93.091-93.091-93.091h-186.182c-51.413 0-93.091 41.678-93.091 93.091s41.678 93.091 93.091 93.091z" />
<glyph unicode="&#xe93b;" glyph-name="vegetarian" d="M556.424 665.837c62.546 41.575 130.589 82.808 204.377 123.567-257.746 28.123-402.95-74.781-473.351-269.245-10.434-28.82-18.795-58.868-25.265-89.67 48.806 48.218 104.131 96.317 166.338 144.101v87.672c0 35.346 28.654 64 64 64 34.146 0 62.047-26.741 63.902-60.424zM378.119 364.522c-33.614-31.582-63.998-63.1-91.294-94.482 291.858-49.3 452.404 53.951 527.619 261.661 18.89 52.166 30.993 108.353 37.376 165.756-4.717-5.257-10.392-9.817-16.942-13.398-115.784-63.31-216.3-127.356-302.727-191.537h116.197c35.346 0 64-28.654 64-64s-28.654-64-64-64h-270.229zM116.776 260.67c-0.814 91.597 12.449 198.458 50.318 303.060 104.507 288.674 354.34 426.572 767.039 323.733 4.016-0.904 7.899-2.188 11.606-3.816 5.453-2.514 9.47-4.948 13.176-7.782 3.796-2.894 7.148-6.114 10.111-9.641 2.969-3.522 5.569-7.375 7.734-11.503 2.197-4.241 3.909-8.616 5.128-13.153 1.325-5.313 1.934-9.484 2.12-13.723 0.149-2.357 0.319-5.611 0.482-9.71 3.863-97.188-8.032-214.965-49.693-330.015-101.699-280.848-340.943-418.981-733.879-331.55-27.44-42.638-47.002-81.842-59.975-117.021-9.037-24.505-12.668-40.321-13.302-46.282-3.74-35.148-35.266-60.608-70.413-56.868s-60.608 35.266-56.868 70.413c5.836 54.838 38.295 143.149 116.416 253.858z" />
<glyph unicode="&#xe93c;" glyph-name="waiting" d="M960 960c35.346 0 64-28.654 64-64v0-31.064c0-20.669-9.982-40.065-26.801-52.079v0l-421.199-300.857v-192h128c35.346 0 64-28.654 64-64s-28.654-64-64-64h-384c-35.346 0-64 28.654-64 64s28.654 64 64 64h128v192l-421.199 300.857c-16.819 12.014-26.801 31.41-26.801 52.079v0 31.064c0 35.346 28.654 64 64 64v0h896zM256-64c-35.346 0-64 28.654-64 64s28.654 64 64 64c35.346 0 64-28.654 64-64s-28.654-64-64-64zM512-64c-35.346 0-64 28.654-64 64s28.654 64 64 64c35.346 0 64-28.654 64-64s-28.654-64-64-64zM768-64c-35.346 0-64 28.654-64 64s28.654 64 64 64c35.346 0 64-28.654 64-64s-28.654-64-64-64z" />
</font>
</defs>
</svg>
