<?xml version="1.0" encoding="UTF-8"?>
<svg width="20px" height="24px" viewBox="0 0 20 24" version="1.1" xmlns="http://www.w3.org/2000/svg" xmlns:xlink="http://www.w3.org/1999/xlink">
    <!-- Generator: Sketch 47 (45396) - http://www.bohemiancoding.com/sketch -->
    <title>Notification</title>
    <desc>Created with Sketch.</desc>
    <defs></defs>
    <g id="Page-1" stroke="none" stroke-width="1" fill="none" fill-rule="evenodd" stroke-linecap="round" stroke-linejoin="round">
        <g id="Timeline" transform="translate(-25.000000, -830.000000)" stroke="#454B56">
            <g id="Menu" transform="translate(0.000000, 71.000000)">
                <g id="6" transform="translate(0.000000, 735.000000)">
                    <g id="Notification" transform="translate(26.000000, 25.000000)">
                        <g>
                            <path d="M3,12 L0.095,17.106 C-0.151,17.598 0.098,18 0.647,18 L17.353,18 C17.902,18 18.151,17.598 17.905,17.106 L15,12" id="Stroke-1" stroke-width="2"></path>
                            <path d="M12,19 C12,20.658 10.656,22 8.998,22 C7.342,22 5.998,20.658 5.998,19" id="Stroke-3" stroke-width="2"></path>
                            <path d="M15,6 C15,2.686 12.314,0 8.998,0 C5.686,0 3,2.686 3,6" id="Stroke-5" stroke-width="2"></path>
                            <path d="M3,6 L3,12" id="Stroke-7" stroke-width="2"></path>
                            <path d="M15,6 L15,12" id="Stroke-9" stroke-width="2"></path>
                        </g>
                    </g>
                </g>
            </g>
        </g>
    </g>
</svg>