<?xml version="1.0" encoding="UTF-8"?>
<svg width="24px" height="24px" viewBox="0 0 24 24" version="1.1" xmlns="http://www.w3.org/2000/svg" xmlns:xlink="http://www.w3.org/1999/xlink">
    <!-- Generator: Sketch 47.1 (45422) - http://www.bohemiancoding.com/sketch -->
    <title>Blocked</title>
    <desc>Created with Sketch.</desc>
    <defs></defs>
    <g id="Page-1" stroke="none" stroke-width="1" fill="none" fill-rule="evenodd">
        <g id="Blocked-Table" transform="translate(-573.000000, -632.000000)" fill="#454B56">
            <g id="Timeline" transform="translate(415.000000, 74.000000)">
                <g id="Blocked" transform="translate(158.000000, 558.000000)">
                    <g>
                        <path d="M6,7.6 C6,7.35412257 6.05183089,7.2315389 6,7 C6.23635004,7.05077582 6.36148087,7 6.6,7 C8.17890987,7.03017199 9.84457767,7.3746924 11.4,8.2 L11.4,17.2 C9.85531988,16.515991 8.18655258,16.1416618 6.6,16 C6.22025603,16.0990531 6,15.8832806 6,15.4 L6,7.6 Z M17.4,7 C17.7797279,7 18,7.21579086 18,7.6 L18,15.4 C18,15.8840362 17.7797279,16.0998271 17.4,16 C15.8134846,16.1422382 14.1447414,16.5163015 12.6,17.2 L12.6,8.2 C14.1554437,7.37469955 15.8210835,7.03021854 17.4,7 Z" id="Combined-Shape" fill-rule="nonzero"></path>
                        <path d="M12,24 C5.372583,24 0,18.627417 0,12 C0,5.372583 5.372583,0 12,0 C18.627417,0 24,5.372583 24,12 C24,18.627417 18.627417,24 12,24 Z M12,22 C17.5228475,22 22,17.5228475 22,12 C22,6.4771525 17.5228475,2 12,2 C6.4771525,2 2,6.4771525 2,12 C2,17.5228475 6.4771525,22 12,22 Z" id="Combined-Shape"></path>
                        <rect id="Rectangle-6" transform="translate(11.749899, 12.046076) rotate(-44.000000) translate(-11.749899, -12.046076) " x="10.7498986" y="1.04607577" width="2" height="22"></rect>
                    </g>
                </g>
            </g>
        </g>
    </g>
</svg>