<?xml version="1.0" encoding="UTF-8"?>
<svg width="24px" height="24px" viewBox="0 0 24 24" version="1.1" xmlns="http://www.w3.org/2000/svg" xmlns:xlink="http://www.w3.org/1999/xlink">
    <!-- Generator: Sketch 47 (45396) - http://www.bohemiancoding.com/sketch -->
    <title>Booking Selected</title>
    <desc>Created with Sketch.</desc>
    <defs></defs>
    <g id="Page-1" stroke="none" stroke-width="1" fill="none" fill-rule="evenodd">
        <g id="Timeline" transform="translate(-24.000000, -170.000000)" stroke="#454B56">
            <g id="Menu" transform="translate(0.000000, 71.000000)">
                <g id="2" transform="translate(0.000000, 75.000000)">
                    <g id="Booking" transform="translate(25.000000, 25.000000)">
                        <g>
                            <path d="M17.2173913,22 L4.7826087,22 C2.14117391,22 0,19.8588261 0,17.2173913 L0,2 L0,2 C-1.3527075e-16,0.8954305 0.8954305,2.02906125e-16 2,0 L20,0 L20,0 C21.1045695,1.75920346e-15 22,0.8954305 22,2 L22,17.2173913 C22,19.8588261 19.8588261,22 17.2173913,22 Z" id="Stroke-1" stroke-width="2"></path>
                            <path d="M3,4 L19,4" id="Stroke-3" stroke-width="2"></path>
                            <polyline id="Stroke-5" stroke-width="2" points="7 12.5056537 10.7084 16 15 9"></polyline>
                        </g>
                    </g>
                </g>
            </g>
        </g>
    </g>
</svg>