<?xml version="1.0" encoding="UTF-8"?>
<svg width="20px" height="20px" viewBox="0 0 20 20" version="1.1" xmlns="http://www.w3.org/2000/svg" xmlns:xlink="http://www.w3.org/1999/xlink">
    <!-- Generator: Sketch 47.1 (45422) - http://www.bohemiancoding.com/sketch -->
    <title>Calender</title>
    <desc>Created with Sketch.</desc>
    <defs></defs>
    <g id="Page-1" stroke="none" stroke-width="1" fill="none" fill-rule="evenodd">
        <g id="Booking-More-Details---1" transform="translate(-444.000000, -272.000000)">
            <g id="Right-Panel" transform="translate(444.000000, 100.000000)">
                <g id="1" transform="translate(1.000000, 162.000000)">
                    <g id="Calender" transform="translate(0.000000, 11.000000)">
                        <g>
                            <path d="M14.0869565,18 L3.91304348,18 C1.75186957,18 0,16.2481304 0,14.0869565 L0,2 L-2.22044605e-16,2 C-3.57315355e-16,0.8954305 0.8954305,-1.91384796e-17 2,-2.22044605e-16 L16,0 L16,-2.22044605e-16 C17.1045695,5.56104062e-16 18,0.8954305 18,2 L18,14.0869565 C18,16.2481304 16.2481304,18 14.0869565,18 Z" id="Stroke-1" stroke="#545F6D" stroke-width="2"></path>
                            <path d="M3.52173913,4 L14.4782609,4" id="Stroke-3" stroke="#545F6D" stroke-width="2"></path>
                            <circle id="Oval-2" fill="#545F6D" cx="10.5" cy="9.5" r="1.5"></circle>
                        </g>
                    </g>
                </g>
            </g>
        </g>
    </g>
</svg>