<?xml version="1.0" encoding="UTF-8"?>
<svg width="20px" height="17px" viewBox="0 0 20 17" version="1.1" xmlns="http://www.w3.org/2000/svg" xmlns:xlink="http://www.w3.org/1999/xlink">
    <!-- Generator: Sketch 47.1 (45422) - http://www.bohemiancoding.com/sketch -->
    <title>Page 1</title>
    <desc>Created with Sketch.</desc>
    <defs></defs>
    <g id="Page-1" stroke="none" stroke-width="1" fill="none" fill-rule="evenodd" stroke-linecap="round" stroke-linejoin="round">
        <g id="Staffs-Edit" transform="translate(-455.000000, -115.000000)" stroke="#FFFFFF" stroke-width="2">
            <g id="Right-Panel" transform="translate(445.000000, 100.000000)">
                <g id="Header">
                    <g id="Page-1" transform="translate(11.000000, 16.000000)">
                        <path d="M13.9090909,2.45454545 L16.3636364,2.45454545 C17.2636364,2.45454545 18,3.19090909 18,4.09090909 L18,13.0909091 C18,13.9909091 17.2636364,15 16.3636364,15 L1.63636364,15 C0.736363636,15 0,13.9909091 0,13.0909091 L0,4.09090909 C0,3.19090909 0.736363636,2.45454545 1.63636364,2.45454545 L4.09090909,2.45454545" id="Stroke-1"></path>
                        <polyline id="Stroke-3" points="4.09090909 2.45454545 5.39672727 0 12.6032727 0 13.9090909 2.45454545"></polyline>
                        <path d="M12.6818182,7.77354545 C12.6818182,5.74036364 11.034,4.09172727 9,4.09172727 C6.96763636,4.09172727 5.31818182,5.74036364 5.31818182,7.77354545 C5.31818182,9.80672727 6.96763636,11.4545455 9,11.4545455 C11.034,11.4545455 12.6818182,9.80672727 12.6818182,7.77354545 Z" id="Stroke-5"></path>
                    </g>
                </g>
            </g>
        </g>
    </g>
</svg>