<?xml version="1.0" encoding="UTF-8"?>
<svg width="18px" height="18px" viewBox="0 0 18 18" version="1.1" xmlns="http://www.w3.org/2000/svg" xmlns:xlink="http://www.w3.org/1999/xlink">
    <!-- Generator: Sketch 47.1 (45422) - http://www.bohemiancoding.com/sketch -->
    <title>cancel status</title>
    <desc>Created with Sketch.</desc>
    <defs></defs>
    <g id="Page-1" stroke="none" stroke-width="1" fill="none" fill-rule="evenodd">
        <g id="Booking-Status" transform="translate(-126.000000, -758.000000)" fill="#D8DEE8">
            <g id="Left-Panel" transform="translate(74.000000, 74.000000)">
                <g id="8" transform="translate(30.000000, 665.000000)">
                    <g id="cancel-status" transform="translate(22.000000, 19.000000)">
                        <g id="Combined-Shape">
                            <path d="M9,7.58578644 L6.87867966,5.46446609 C6.48815536,5.0739418 5.85499039,5.0739418 5.46446609,5.46446609 C5.0739418,5.85499039 5.0739418,6.48815536 5.46446609,6.87867966 L7.58578644,9 L5.46446609,11.1213203 C5.0739418,11.5118446 5.0739418,12.1450096 5.46446609,12.5355339 L5.46446609,12.5355339 C5.85499039,12.9260582 6.48815536,12.9260582 6.87867966,12.5355339 L9,10.4142136 L11.1213203,12.5355339 C11.5118446,12.9260582 12.1450096,12.9260582 12.5355339,12.5355339 C12.9260582,12.1450096 12.9260582,11.5118446 12.5355339,11.1213203 L10.4142136,9 L12.5355339,6.87867966 C12.9260582,6.48815536 12.9260582,5.85499039 12.5355339,5.46446609 C12.1450096,5.0739418 11.5118446,5.0739418 11.1213203,5.46446609 L9,7.58578644 Z M9,0 C13.95,0 18,4.05 18,9 C18,13.95 13.95,18 9,18 C4.05,18 0,13.95 0,9 C0,4.05 4.05,0 9,0 Z"></path>
                        </g>
                    </g>
                </g>
            </g>
        </g>
    </g>
</svg>