<?xml version="1.0" encoding="UTF-8"?>
<svg width="26px" height="24px" viewBox="0 0 26 24" version="1.1" xmlns="http://www.w3.org/2000/svg" xmlns:xlink="http://www.w3.org/1999/xlink">
    <!-- Generator: Sketch 47 (45396) - http://www.bohemiancoding.com/sketch -->
    <title>Dashboard</title>
    <desc>Created with Sketch.</desc>
    <defs></defs>
    <g id="Page-1" stroke="none" stroke-width="1" fill="none" fill-rule="evenodd">
        <g id="Booking-Status" transform="translate(-23.000000, -97.000000)" stroke="#454B56">
            <g id="Menu" transform="translate(0.000000, 71.000000)">
                <g id="1" transform="translate(0.000000, 2.000000)">
                    <g id="Dashboard" transform="translate(24.000000, 25.000000)">
                        <g>
                            <path d="M24,22 L0,22" id="Stroke-1" stroke-width="2" stroke-linecap="round"></path>
                            <path d="M3,22 L3,14" id="Stroke-2" stroke-width="2"></path>
                            <path d="M9,22 L9,8" id="Stroke-3" stroke-width="2"></path>
                            <path d="M15,12 L15,22" id="Stroke-4" stroke-width="2"></path>
                            <path d="M21,22 L21,2" id="Stroke-5" stroke-width="2"></path>
                            <path d="M23,1.5 C23,2.328 22.328,3 21.5,3 C20.672,3 20,2.328 20,1.5 C20,0.672 20.672,0 21.5,0 C22.328,0 23,0.672 23,1.5 Z" id="Stroke-6" stroke-width="2"></path>
                            <path d="M17,11.5 C17,12.328 16.328,13 15.5,13 C14.672,13 14,12.328 14,11.5 C14,10.672 14.672,10 15.5,10 C16.328,10 17,10.672 17,11.5 Z" id="Stroke-8" stroke-width="2"></path>
                            <path d="M11,7.5 C11,8.328 10.328,9 9.5,9 C8.672,9 8,8.328 8,7.5 C8,6.672 8.672,6 9.5,6 C10.328,6 11,6.672 11,7.5 Z" id="Stroke-10" stroke-width="2"></path>
                            <path d="M5,13.5 C5,14.328 4.328,15 3.5,15 C2.672,15 2,14.328 2,13.5 C2,12.672 2.672,12 3.5,12 C4.328,12 5,12.672 5,13.5 Z" id="Stroke-12" stroke-width="2"></path>
                            <path d="M4,13 L9,8" id="Stroke-14" stroke-width="2"></path>
                            <path d="M11,9 L14,11" id="Stroke-16" stroke-width="2"></path>
                            <path d="M16,10 L21,2" id="Stroke-18" stroke-width="2"></path>
                        </g>
                    </g>
                </g>
            </g>
        </g>
    </g>
</svg>