<?xml version="1.0" encoding="UTF-8"?>
<svg width="26px" height="20px" viewBox="0 0 26 20" version="1.1" xmlns="http://www.w3.org/2000/svg" xmlns:xlink="http://www.w3.org/1999/xlink">
    <!-- Generator: Sketch 47 (45396) - http://www.bohemiancoding.com/sketch -->
    <title>Guests</title>
    <desc>Created with Sketch.</desc>
    <defs></defs>
    <g id="Page-1" stroke="none" stroke-width="1" fill="none" fill-rule="evenodd" stroke-linecap="round" stroke-linejoin="round">
        <g id="Timeline" transform="translate(-22.000000, -245.000000)" stroke="#454B56">
            <g id="Menu" transform="translate(0.000000, 71.000000)">
                <g id="3" transform="translate(0.000000, 148.000000)">
                    <g id="Guests" transform="translate(23.000000, 27.000000)">
                        <g>
                            <path d="M6.19432258,11.6129032 L0,15.3313548 L0,16.4670968 C0,16.779871 0.256258065,17.0353548 0.567483871,17.0353548 L3.93522581,17.0353548" id="Stroke-1" stroke-width="2"></path>
                            <path d="M9.30472258,0.0680516129 C9.04072258,0.0231483871 8.77672258,-7.74193548e-05 8.51581935,-7.74193548e-05 L8.51581935,0.00147096774 C6.47891613,0.00147096774 4.20743226,1.43527742 3.87298065,3.31734194 L3.87065806,6.63243871 C3.87065806,6.63243871 3.86756129,9.81514839 6.1940129,11.6128258" id="Stroke-3" stroke-width="2"></path>
                            <path d="M12.713729,12.1996645 L6.96766452,15.3343742 L6.96766452,16.4701161 C6.96766452,16.7813419 7.22237419,17.0368258 7.53592258,17.0368258 L23.4324387,17.0368258 C23.7436645,17.0368258 23.9999226,16.7813419 23.9999226,16.4701161 L23.9999226,15.3343742 L18.3576,12.1996645" id="Stroke-5" stroke-width="2"></path>
                            <path d="M18.3576,12.1996645 C18.0858581,12.0572129 17.8187613,11.8187613 17.8187613,11.6701161 C17.8187613,11.5206968 18.0696,11.3650839 18.3754065,11.3240516 L21.6773419,10.0675355 C19.7070194,8.71579355 19.4259871,3.24534194 19.4259871,3.24534194 C19.1008258,1.40353548 17.4603097,0.00301935484 15.4837935,0.00301935484 C13.5072774,0.00301935484 11.8667613,1.40353548 11.5416,3.24534194 C11.5416,3.24534194 11.2605677,8.71579355 9.29024516,10.0675355 L12.6037935,11.3240516 C12.9103742,11.3650839 13.1612129,11.5400516 13.1612129,11.6159226 C13.1612129,11.7653419 13.1372129,11.9666323 12.713729,12.1996645" id="Stroke-7" stroke-width="2"></path>
                        </g>
                    </g>
                </g>
            </g>
        </g>
    </g>
</svg>