<?xml version="1.0" encoding="UTF-8"?>
<svg width="18px" height="20px" viewBox="0 0 18 20" version="1.1" xmlns="http://www.w3.org/2000/svg" xmlns:xlink="http://www.w3.org/1999/xlink">
    <!-- Generator: Sketch 47.1 (45422) - http://www.bohemiancoding.com/sketch -->
    <title>Company</title>
    <desc>Created with Sketch.</desc>
    <defs></defs>
    <g id="Page-1" stroke="none" stroke-width="1" fill="none" fill-rule="evenodd">
        <g id="Booking-More-Details---2" transform="translate(-890.000000, -358.000000)" stroke="#54606E">
            <g id="Right-Panel" transform="translate(445.000000, 100.000000)">
                <g id="4" transform="translate(446.000000, 248.000000)">
                    <g id="Company" transform="translate(0.000000, 11.000000)">
                        <g>
                            <path d="M8,5 L8,1 L8,1 C8,0.44771525 7.55228475,-2.12475365e-16 7,-1.11022302e-16 L1,0 L1,0 C0.44771525,1.01453063e-16 -6.76353751e-17,0.44771525 0,1 L0,17 L0,17 C6.76353751e-17,17.5522847 0.44771525,18 1,18 L8,18 L15,18 L15,18 C15.5522847,18 16,17.5522847 16,17 L16,7 L16,7 C16,6.44771525 15.5522847,6 15,6 L9,6 L9,6 C8.44771525,6 8,5.55228475 8,5 Z" id="Stroke-1" stroke-width="2"></path>
                            <path d="M13,10 L11,10" id="Stroke-3" stroke-width="2"></path>
                            <path d="M13,14 L11,14" id="Stroke-4" stroke-width="2"></path>
                            <path d="M13,18 L11,18" id="Stroke-5" stroke-width="2"></path>
                            <path d="M4,8 L4,3" id="Stroke-6" stroke-width="2"></path>
                            <path d="M4,15 L4,10" id="Stroke-8" stroke-width="2"></path>
                            <path d="M8,6 L8,19" id="Stroke-14" stroke-width="2"></path>
                        </g>
                    </g>
                </g>
            </g>
        </g>
    </g>
</svg>