<?xml version="1.0" encoding="UTF-8"?>
<svg width="18px" height="14px" viewBox="0 0 18 14" version="1.1" xmlns="http://www.w3.org/2000/svg" xmlns:xlink="http://www.w3.org/1999/xlink">
    <!-- Generator: Sketch 47.1 (45422) - http://www.bohemiancoding.com/sketch -->
    <title>Payment Method</title>
    <desc>Created with Sketch.</desc>
    <defs></defs>
    <g id="Page-1" stroke="none" stroke-width="1" fill="none" fill-rule="evenodd">
        <g id="Booking-More-Details---1" transform="translate(-445.000000, -620.000000)" fill="#54606E">
            <g id="Right-Panel" transform="translate(444.000000, 100.000000)">
                <g id="9" transform="translate(1.000000, 506.000000)">
                    <g id="Payment-Method" transform="translate(0.000000, 14.000000)">
                        <g id="Icon">
                            <path d="M16.2,0 L1.8,0 C0.801,0 0.009,0.77875 0.009,1.75 L0,12.25 C0,13.22125 0.801,14 1.8,14 L16.2,14 C17.199,14 18,13.22125 18,12.25 L18,1.75 C18,0.77875 17.199,0 16.2,0 L16.2,0 Z M16,12 L2,12 L2,6 L16,6 L16,12 L16,12 Z M16,4 L2,4 L2,2 L16,2 L16,4 L16,4 Z"></path>
                        </g>
                    </g>
                </g>
            </g>
        </g>
    </g>
</svg>