<?xml version="1.0" encoding="UTF-8"?>
<svg width="20px" height="20px" viewBox="0 0 20 20" version="1.1" xmlns="http://www.w3.org/2000/svg" xmlns:xlink="http://www.w3.org/1999/xlink">
    <!-- Generator: Sketch 47.1 (45422) - http://www.bohemiancoding.com/sketch -->
    <title>Guests</title>
    <desc>Created with Sketch.</desc>
    <defs></defs>
    <g id="Page-1" stroke="none" stroke-width="1" fill="none" fill-rule="evenodd" stroke-linecap="round" stroke-linejoin="round">
        <g id="Booking-More-Details---1" transform="translate(-443.000000, -357.000000)" stroke="#54606E">
            <g id="Right-Panel" transform="translate(444.000000, 100.000000)">
                <g id="3" transform="translate(0.000000, 248.000000)">
                    <g id="Guests" transform="translate(0.000000, 10.000000)">
                        <g>
                            <path d="M10.6363636,1.63636364 C10.6363636,2.53963636 9.90327273,3.27272727 9,3.27272727 C8.09590909,3.27272727 7.36363636,2.53963636 7.36363636,1.63636364 C7.36363636,0.733090909 8.09590909,0 9,0 C9.90327273,0 10.6363636,0.733090909 10.6363636,1.63636364 Z" id="Stroke-1" stroke-width="2"></path>
                            <polyline id="Stroke-3" stroke-width="2" points="7.36363636 11.4545455 8.18181818 18 9.81818182 18 10.6363636 11.4545455"></polyline>
                            <polyline id="Stroke-5" stroke-width="2" points="5.72727273 8.21536364 5.72727273 11.4545455 7.36363636 11.4545455"></polyline>
                            <polyline id="Stroke-7" stroke-width="2" points="12.2727273 8.21536364 12.2727273 11.4545455 10.6363636 11.4545455"></polyline>
                            <path d="M12.2727273,8.18181818 C12.2727273,6.37527273 10.8065455,4.90909091 9,4.90909091 C7.19181818,4.90909091 5.72727273,6.37527273 5.72727273,8.18181818" id="Stroke-9" stroke-width="2"></path>
                            <path d="M16.3636364,2.45454545 C16.3636364,3.35781818 15.6305455,4.09090909 14.7264545,4.09090909 C13.8223636,4.09090909 13.0909091,3.35781818 13.0909091,2.45454545 C13.0909091,1.55127273 13.8223636,0.818181818 14.7264545,0.818181818 C15.6305455,0.818181818 16.3636364,1.55127273 16.3636364,2.45454545 Z" id="Stroke-11" stroke-width="2"></path>
                            <polyline id="Stroke-13" stroke-width="2" points="16.3636364 11.0454545 15.5454545 16.3636364 13.9090909 16.3636364 13.5253636 13.9090909"></polyline>
                            <polyline id="Stroke-15" stroke-width="2" points="18 8.79062727 18 11.0455364 16.3636364 11.0455364"></polyline>
                            <path d="M18,8.75389091 C18,6.85734545 17.172,5.31834545 15.5454545,5.31834545" id="Stroke-17" stroke-width="2"></path>
                            <path d="M1.63636364,2.45454545 C1.63636364,3.35781818 2.36945455,4.09090909 3.27354545,4.09090909 C4.17763636,4.09090909 4.90909091,3.35781818 4.90909091,2.45454545 C4.90909091,1.55127273 4.17763636,0.818181818 3.27354545,0.818181818 C2.36945455,0.818181818 1.63636364,1.55127273 1.63636364,2.45454545 Z" id="Stroke-19" stroke-width="2"></path>
                            <polyline id="Stroke-21" stroke-width="2" points="4.47439091 13.9090909 4.09066364 16.3636364 2.4543 16.3636364 1.63611818 11.0454545"></polyline>
                            <polyline id="Stroke-23" stroke-width="2" points="0 8.79062727 0 11.0455364 1.63636364 11.0455364"></polyline>
                            <path d="M0,8.75389091 C0,6.85734545 0.828,5.31834545 2.45454545,5.31834545" id="Stroke-25" stroke-width="2"></path>
                        </g>
                    </g>
                </g>
            </g>
        </g>
    </g>
</svg>