<?xml version="1.0" encoding="UTF-8"?>
<svg width="19px" height="16px" viewBox="0 0 19 16" version="1.1" xmlns="http://www.w3.org/2000/svg" xmlns:xlink="http://www.w3.org/1999/xlink">
    <!-- Generator: Sketch 47.1 (45422) - http://www.bohemiancoding.com/sketch -->
    <title>Account</title>
    <desc>Created with Sketch.</desc>
    <defs></defs>
    <g id="Page-1" stroke="none" stroke-width="1" fill="none" fill-rule="evenodd">
        <g id="Staffs" transform="translate(-889.000000, -315.000000)">
            <g id="Right-Panel" transform="translate(445.000000, 100.000000)">
                <g id="4" transform="translate(445.000000, 203.000000)">
                    <g id="Account" transform="translate(0.000000, 13.000000)">
                        <g>
                            <polygon id="Stroke-1" stroke="#54606E" stroke-width="2" stroke-linecap="round" stroke-linejoin="round" points="0 14 14 14 14 3 0 3"></polygon>
                            <polyline id="Stroke-3" stroke="#54606E" stroke-width="2" stroke-linecap="round" stroke-linejoin="round" points="17 10 17 0 1 0"></polyline>
                            <path d="M9,7 L11,7" id="Stroke-5" stroke="#54606E" stroke-width="2" stroke-linecap="round" stroke-linejoin="round"></path>
                            <path d="M9,10 L10,10" id="Stroke-6" stroke="#54606E" stroke-width="2" stroke-linecap="round" stroke-linejoin="round"></path>
                            <path d="M6.68812542,10.0196732 L5.32638426,9.29359787 C5.76084056,8.95181727 5.96097398,8.24991664 5.96097398,7.8747916 L5.96097398,7.24791597 C5.96097398,6.41430477 5.18962642,6 4.5,6 C3.8087058,6 3.04236157,6.41430477 3.04236157,7.24791597 L3.04236157,7.8747916 C3.04236157,8.21573858 3.23082055,8.9393131 3.66777852,9.29026342 L2.31187458,10.0196732 C2.31187458,10.0196732 2,10.1588863 2,10.3322774 L2,10.6873958 C2,10.8599533 2.1400934,11 2.31187458,11 L6.68812542,11 C6.86074049,11 7,10.8599533 7,10.6873958 L7,10.3322774 C7,10.1480493 6.68812542,10.0196732 6.68812542,10.0196732" id="Fill-7" fill="#54606E"></path>
                        </g>
                    </g>
                </g>
            </g>
        </g>
    </g>
</svg>