<?xml version="1.0" encoding="UTF-8"?>
<svg width="17px" height="20px" viewBox="0 0 17 20" version="1.1" xmlns="http://www.w3.org/2000/svg" xmlns:xlink="http://www.w3.org/1999/xlink">
    <!-- Generator: Sketch 47.1 (45422) - http://www.bohemiancoding.com/sketch -->
    <title>Hours</title>
    <desc>Created with Sketch.</desc>
    <defs></defs>
    <g id="Page-1" stroke="none" stroke-width="1" fill="none" fill-rule="evenodd" stroke-linecap="round" stroke-linejoin="round">
        <g id="Booking-More-Details---1" transform="translate(-891.000000, -443.000000)" stroke="#54606E">
            <g id="Right-Panel" transform="translate(444.000000, 100.000000)">
                <g id="6" transform="translate(446.000000, 334.000000)">
                    <g id="Hours" transform="translate(0.000000, 10.000000)">
                        <g id="Page-1" transform="translate(2.000000, 0.000000)">
                            <path d="M8.18181818,10.6363636 C8.18181818,11.0888182 7.81609091,11.4545455 7.36363636,11.4545455 C6.91118182,11.4545455 6.54545455,11.0888182 6.54545455,10.6363636 C6.54545455,10.1839091 6.91118182,9.81818182 7.36363636,9.81818182 C7.81609091,9.81818182 8.18181818,10.1839091 8.18181818,10.6363636 Z" id="Stroke-1" stroke-width="2"></path>
                            <path d="M7.36363636,3.27272727 L7.36363636,0" id="Stroke-3" stroke-width="2"></path>
                            <path d="M5.72727273,0 L9,0" id="Stroke-5" stroke-width="2"></path>
                            <path d="M14.7272727,10.6363636 C14.7272727,14.7035455 11.4308182,18 7.36363636,18 C3.29645455,18 0,14.7035455 0,10.6363636 C0,6.56918182 3.29645455,3.27272727 7.36363636,3.27272727 C11.4308182,3.27272727 14.7272727,6.56918182 14.7272727,10.6363636 Z" id="Stroke-7" stroke-width="2"></path>
                            <polyline id="Stroke-9" stroke-width="2" points="12.2727273 4.90909091 13.9090909 3.27272727 14.7272727 4.09090909 13.0909091 5.72727273"></polyline>
                            <path d="M5.51276364,7.78549091 L7.36330909,10.6360364" id="Stroke-11" stroke-width="2"></path>
                        </g>
                    </g>
                </g>
            </g>
        </g>
    </g>
</svg>