<?xml version="1.0" encoding="UTF-8"?>
<svg width="20px" height="20px" viewBox="0 0 20 20" version="1.1" xmlns="http://www.w3.org/2000/svg" xmlns:xlink="http://www.w3.org/1999/xlink">
    <!-- Generator: Sketch 47.1 (45422) - http://www.bohemiancoding.com/sketch -->
    <title>Staff Notes</title>
    <desc>Created with Sketch.</desc>
    <defs></defs>
    <g id="Page-1" stroke="none" stroke-width="1" fill="none" fill-rule="evenodd" stroke-linecap="round" stroke-linejoin="round">
        <g id="Booking-More-Details---1" transform="translate(-889.000000, -701.000000)" stroke="#545F6D">
            <g id="Right-Panel" transform="translate(444.000000, 100.000000)">
                <g id="12" transform="translate(446.000000, 592.000000)">
                    <g id="Staff-Notes" transform="translate(0.000000, 10.000000)">
                        <g>
                            <path d="M7.63681818,10.8181818 L4,13.0013636 L4,13.6681818 C4,13.8518182 4.15045455,14.0018182 4.33318182,14.0018182 L13.6668182,14.0018182 C13.85,14.0018182 14,13.8518182 14,13.6681818 L14,13.0013636 L14,13.0004545 L10.3631818,10.8181818" id="Stroke-1" stroke-width="2"></path>
                            <path d="M10.3631818,10.8181818 C11.7295455,9.76272727 11.7272727,7.89272727 11.7272727,7.89272727 L11.7259091,5.94681818 C11.5295455,4.84181818 10.1959091,4 9,4 L9,4.00090909 C7.80363636,4.00090909 6.47045455,4.84272727 6.27409091,5.94772727 L6.27272727,7.89363636 C6.27272727,7.89363636 6.27045455,9.76272727 7.63681818,10.8181818" id="Stroke-3" stroke-width="2"></path>
                            <path d="M16.7998909,0 C17.4601636,0 18.0001636,0.54 18.0001636,1.20027273 L18.0001636,16.7997273 C18.0001636,17.46 17.4601636,18 16.7998909,18 L1.20043636,18 C0.540163636,18 0.000163636364,17.46 0.000163636364,16.7997273 L0.000163636364,1.20027273 C0.000163636364,0.54 0.540163636,0 1.20043636,0 L16.7998909,0 Z" id="Stroke-15" stroke-width="2"></path>
                        </g>
                    </g>
                </g>
            </g>
        </g>
    </g>
</svg>