<?xml version="1.0" encoding="UTF-8"?>
<svg width="20px" height="15px" viewBox="0 0 20 15" version="1.1" xmlns="http://www.w3.org/2000/svg" xmlns:xlink="http://www.w3.org/1999/xlink">
    <!-- Generator: Sketch 47.1 (45422) - http://www.bohemiancoding.com/sketch -->
    <title>Guest Notes</title>
    <desc>Created with Sketch.</desc>
    <defs></defs>
    <g id="Page-1" stroke="none" stroke-width="1" fill="none" fill-rule="evenodd" stroke-linecap="round" stroke-linejoin="round">
        <g id="Booking-More-Details---1" transform="translate(-445.000000, -704.000000)" stroke="#54606E">
            <g id="Right-Panel" transform="translate(444.000000, 100.000000)">
                <g id="11" transform="translate(2.000000, 592.000000)">
                    <g id="Guest-Notes" transform="translate(0.000000, 13.000000)">
                        <g>
                            <path d="M9.87154839,8.70967742 L5.22580645,11.4985161 L5.22580645,12.3503226 C5.22580645,12.5849032 5.418,12.7765161 5.65141935,12.7765161 L17.5743871,12.7765161 C17.8083871,12.7765161 18,12.5849032 18,12.3503226 L18,11.4985161 L18,11.4973548 L13.3542581,8.70967742" id="Stroke-1" stroke-width="2"></path>
                            <path d="M13.3542581,8.70967742 C15.0996774,7.36141935 15.0967742,4.97264516 15.0967742,4.97264516 L15.0950323,2.48690323 C14.8441935,1.07535484 13.1405806,0 11.6129032,0 L11.6129032,0.00116129032 C10.0846452,0.00116129032 8.3816129,1.07651613 8.13077419,2.48806452 L8.12903226,4.97380645 C8.12903226,4.97380645 8.12612903,7.36141935 9.87154839,8.70967742" id="Stroke-3" stroke-width="2"></path>
                            <path d="M4.64574194,8.70967742 L0,11.4985161 L0,12.3503226 C0,12.5849032 0.192193548,12.7765161 0.425612903,12.7765161 L2.95141935,12.7765161" id="Stroke-5" stroke-width="2"></path>
                            <path d="M6.97854194,0.0510387097 C6.78054194,0.0173612903 6.58254194,-5.80645161e-05 6.38686452,-5.80645161e-05 L6.38686452,0.00110322581 C4.8591871,0.00110322581 3.15557419,1.07645806 2.90473548,2.48800645 L2.90299355,4.97432903 C2.90299355,4.97432903 2.90067097,7.36136129 4.64550968,8.70961935" id="Stroke-7" stroke-width="2"></path>
                        </g>
                    </g>
                </g>
            </g>
        </g>
    </g>
</svg>