<?xml version="1.0" encoding="UTF-8"?>
<svg width="20px" height="19px" viewBox="0 0 20 19" version="1.1" xmlns="http://www.w3.org/2000/svg" xmlns:xlink="http://www.w3.org/1999/xlink">
    <!-- Generator: Sketch 47.1 (45422) - http://www.bohemiancoding.com/sketch -->
    <title>WeChat</title>
    <desc>Created with Sketch.</desc>
    <defs></defs>
    <g id="Page-1" stroke="none" stroke-width="1" fill="none" fill-rule="evenodd" stroke-linecap="round" stroke-linejoin="round">
        <g id="Booking-More-Details---2" transform="translate(-889.000000, -445.000000)" stroke="#54606E">
            <g id="Right-Panel" transform="translate(445.000000, 100.000000)">
                <g id="6" transform="translate(445.000000, 334.000000)">
                    <g id="WeChat" transform="translate(0.000000, 12.000000)">
                        <g>
                            <path d="M5.56429091,11.4545455 L5.56429091,11.4545455 L6.95601818,11.4545455 L6.95438182,11.4545455 C10.7949273,11.4545455 13.9089273,8.88954545 13.9089273,5.72727273 C13.9089273,2.565 10.7949273,0 6.95438182,0 C3.11465455,0 -0.000163636364,2.565 -0.000163636364,5.72727273 C-0.000163636364,7.62709091 1.18538182,9.225 2.91501818,10.269" id="Stroke-1" stroke-width="2"></path>
                            <path d="M2.91477273,10.2688364 C2.79531818,12.2602909 1.63677273,13.0907455 1.63677273,13.0907455 C1.63677273,13.0907455 4.07495455,13.4041091 5.56404545,11.4543818" id="Stroke-3" stroke-width="2"></path>
                            <path d="M16.3636364,5.72727273 C17.3732727,6.43009091 18,7.80627273 18,9 C18,10.8998182 16.8128182,12.4977273 15.084,13.5417273" id="Stroke-5" stroke-width="2"></path>
                            <path d="M12.4357091,14.7272727 L12.4357091,14.7272727 L11.0439818,14.7272727 L11.0456182,14.7272727 C9.70625455,14.7272727 8.42498182,14.4474545 7.3638,13.9090909" id="Stroke-7" stroke-width="2"></path>
                            <path d="M15.0835909,13.5415636 C15.2046818,15.5330182 16.3632273,16.3634727 16.3632273,16.3634727 C16.3632273,16.3634727 13.9234091,16.6768364 12.4359545,14.7271091" id="Stroke-9" stroke-width="2"></path>
                        </g>
                    </g>
                </g>
            </g>
        </g>
    </g>
</svg>