<?xml version="1.0" encoding="UTF-8"?>
<svg width="24px" height="24px" viewBox="0 0 24 24" version="1.1" xmlns="http://www.w3.org/2000/svg" xmlns:xlink="http://www.w3.org/1999/xlink">
    <!-- Generator: Sketch 47 (45396) - http://www.bohemiancoding.com/sketch -->
    <title>Profile</title>
    <desc>Created with Sketch.</desc>
    <defs></defs>
    <g id="Page-1" stroke="none" stroke-width="1" fill="none" fill-rule="evenodd" stroke-linecap="round" stroke-linejoin="round">
        <g id="Timeline" transform="translate(-23.000000, -903.000000)" stroke="#454B56">
            <g id="Menu" transform="translate(0.000000, 71.000000)">
                <g id="7" transform="translate(0.000000, 808.000000)">
                    <g id="Profile" transform="translate(24.000000, 25.000000)">
                        <g>
                            <path d="M22,11 C22,4.926 17.075,0 11,0 C4.925,0 0,4.926 0,11 C0,17.076 4.925,22 11,22 C17.075,22 22,17.076 22,11 Z" id="Stroke-1" stroke-width="2"></path>
                            <polyline id="Stroke-3" stroke-width="2" points="18.7979 18.7578 18.7979 18.7578 12.9989 15.2658"></polyline>
                            <path d="M9.001,15.2656 L3.202,18.7596" id="Stroke-5" stroke-width="2"></path>
                            <path d="M12.999,15.2656 C15.003,13.8146 15,10.9766 15,10.9766 L14.997,7.6756 C14.71,6.1546 12.754,4.9996 11,4.9996 C9.246,4.9996 7.29,6.1566 7.003,7.6776 L7,10.9786 C7,10.9786 6.997,13.8146 9.001,15.2656" id="Stroke-7" stroke-width="2"></path>
                        </g>
                    </g>
                </g>
            </g>
        </g>
    </g>
</svg>