<?xml version="1.0" encoding="UTF-8"?>
<svg width="24px" height="24px" viewBox="0 0 24 24" version="1.1" xmlns="http://www.w3.org/2000/svg" xmlns:xlink="http://www.w3.org/1999/xlink">
    <!-- Generator: Sketch 47 (45396) - http://www.bohemiancoding.com/sketch -->
    <title>Settings</title>
    <desc>Created with Sketch.</desc>
    <defs></defs>
    <g id="Page-1" stroke="none" stroke-width="1" fill="none" fill-rule="evenodd">
        <g id="Timeline" transform="translate(-23.000000, -389.000000)" stroke="#454B56">
            <g id="Menu" transform="translate(0.000000, 71.000000)">
                <g id="5" transform="translate(0.000000, 294.000000)">
                    <g id="Settings" transform="translate(24.000000, 25.000000)">
                        <g>
                            <path d="M14.3478261,10.9997609 C14.3478261,12.8487174 12.8489565,14.347587 11,14.347587 C9.15104348,14.347587 7.65217391,12.8487174 7.65217391,10.9997609 C7.65217391,9.15080435 9.15104348,7.65193478 11,7.65193478 C12.8489565,7.65193478 14.3478261,9.15080435 14.3478261,10.9997609 Z" id="Stroke-1" stroke-width="2"></path>
                            <path d="M22,10.9412696 L22,10.9412696 L22,10.9412696 C22,10.0176946 21.2872097,9.25067043 20.3661124,9.18306485 L20.0907826,9.16285652 C19.3222174,9.1069 18.6507391,8.62194348 18.3575652,7.90933478 C18.051,7.17137826 18.1815652,6.35403043 18.6851739,5.77055217 L18.8661727,5.56077069 L18.8661727,5.56077069 C19.4694964,4.86150563 19.4310151,3.81517599 18.7779565,3.16211739 L18.7779565,3.16211739 L18.7779565,3.16211739 C18.124931,2.50909189 17.0786211,2.47071038 16.3795055,3.07413564 L16.1695217,3.25537826 C15.5860435,3.75946522 14.7691739,3.89003043 14.0570435,3.59446522 C13.319087,3.29124783 12.8336522,2.64846522 12.7772174,1.8799 L12.7587948,1.63357634 L12.7587948,1.63357634 C12.6898873,0.712231577 11.9222441,-0.000143478261 10.9983261,-0.000143478261 L10.9983261,-0.000143478261 L10.9983261,-0.000143478261 C10.0744893,-0.000143478261 9.30699272,0.712330039 9.23839376,1.63361637 L9.21991304,1.88181304 C9.16395652,2.6499 8.67947826,3.30655217 7.96734783,3.60020435 C7.23130435,3.89863913 6.41395652,3.76472609 5.83,3.26063913 L5.61743441,3.07685919 L5.61743441,3.07685919 C4.91908272,2.47307836 3.87304632,2.51090586 3.22013043,3.16355217 L3.22013043,3.16355217 L3.22013043,3.16355217 C2.56713067,3.81628233 2.52861859,4.86235302 3.13185389,5.56133265 L3.31530435,5.7739 C3.81891304,6.35737826 3.949,7.17424783 3.65343478,7.88637826 C3.35117391,8.62146522 2.67969565,9.10642174 1.91113043,9.16285652 L1.63389633,9.18318425 L1.63389633,9.18318425 C0.712812169,9.2507212 7.07180176e-16,10.0177127 0,10.9412696 L0,10.9412696 L0,10.9412696 C1.13111756e-16,11.8648971 0.712726681,12.6320163 1.63386205,12.6998214 L1.91017391,12.7201609 C2.67873913,12.7765957 3.35021739,13.2615522 3.6433913,13.9746391 C3.94852174,14.7106826 3.81795652,15.5275522 3.31434783,16.1110304 L3.13207921,16.3221003 L3.13207921,16.3221003 C2.52844572,17.0211171 2.56665072,18.0675246 3.21965217,18.7206609 L3.21965217,18.7206609 L3.21965217,18.7206609 C3.87268363,19.3738271 4.91910113,19.4123385 5.61837801,18.8089414 L5.82904348,18.6271609 C6.41252174,18.1230739 7.2293913,17.992987 7.94152174,18.2885522 C8.679,18.5917696 9.16395652,19.2924217 9.2203913,20.060987 L9.24234678,20.3658071 L9.24234678,20.3658071 C9.30867355,21.2866589 10.0750887,21.9998565 10.9983261,21.9998565 L10.9983261,21.9998565 L10.9983261,21.9998565 C11.9216896,21.9998565 12.6883322,21.2868109 12.7551364,20.3658672 L12.7772174,20.0614652 C12.8336522,19.2929 13.3186087,18.6070739 14.0316957,18.3139 C14.7691739,18.0001609 15.5860435,18.1273783 16.17,18.630987 L16.3789182,18.8110342 L16.3789182,18.8110342 C17.0787377,19.4141438 18.125313,19.375248 18.7784348,18.7218565 L18.7784348,18.7218565 L18.7784348,18.7218565 C19.431501,18.0685207 19.469797,17.0219626 18.8662276,16.3226435 L18.6856522,16.1134217 C18.1815652,15.5294652 18.0514783,14.7121174 18.3470435,13.999987 C18.6507391,13.2610739 19.3222174,12.7765957 20.0907826,12.7201609 L20.3661424,12.6998814 L20.3661424,12.6998814 C21.2872843,12.6320418 22,11.8649062 22,10.9412696 Z" id="Stroke-3" stroke-width="2"></path>
                        </g>
                    </g>
                </g>
            </g>
        </g>
    </g>
</svg>