<?xml version="1.0" encoding="UTF-8"?>
<svg width="20px" height="20px" viewBox="0 0 20 20" version="1.1" xmlns="http://www.w3.org/2000/svg" xmlns:xlink="http://www.w3.org/1999/xlink">
    <!-- Generator: Sketch 47.1 (45422) - http://www.bohemiancoding.com/sketch -->
    <title>Shifs</title>
    <desc>Created with Sketch.</desc>
    <defs></defs>
    <g id="Page-1" stroke="none" stroke-width="1" fill="none" fill-rule="evenodd" stroke-linecap="round" stroke-linejoin="round">
        <g id="Settings---General" transform="translate(-103.000000, -284.000000)" stroke="#54606E">
            <g id="Left-Panel" transform="translate(74.000000, 74.000000)">
                <g id="3" transform="translate(0.000000, 178.000000)">
                    <g id="Shifs" transform="translate(30.000000, 33.000000)">
                        <g>
                            <path d="M0.818181818,4.90990909 C2.277,1.908 5.43763636,0 9,0 C13.9696364,0 18,4.02954545 18,9 C18,13.9696364 13.9696364,18 9,18 C4.02872727,18 0,13.9696364 0,9" id="Stroke-1" stroke-width="2"></path>
                            <path d="M9,10 L9,4" id="Stroke-3" stroke-width="2"></path>
                            <path d="M9,10 L13,10" id="Stroke-5" stroke-width="2"></path>
                            <polyline id="Stroke-7" stroke-width="2" points="1 1 1 5 1.1424 5 5 5"></polyline>
                            <path d="M10,10 C10,10.553 9.553,11 9,11 C8.447,11 8,10.553 8,10 C8,9.447 8.447,9 9,9 C9.553,9 10,9.447 10,10 Z" id="Stroke-9" stroke-width="2"></path>
                        </g>
                    </g>
                </g>
            </g>
        </g>
    </g>
</svg>