<svg width="50" height="50" xmlns="http://www.w3.org/2000/svg">

 <g>
  <title>background</title>
  <rect fill="none" id="canvas_background" height="402" width="582" y="-1" x="-1"/>
 </g>
 <g>
  <title>Layer 1</title>
  <path fill="#7c8390" id="svg_1" d="m15.98438,1.98633a1.0001,1.0001 0 0 0 -0.78125,0.39648l-4.91016,4.91016a1.0001,1.0001 0 1 0 1.41406,1.41406l3.29297,-3.29297l0,8.58594a1.0001,1.0001 0 1 0 2,0l0,-8.58594l3.29297,3.29297a1.0001,1.0001 0 1 0 1.41406,-1.41406l-4.91601,-4.91602a1.0001,1.0001 0 0 0 -0.80664,-0.39062zm18,0a1.0001,1.0001 0 0 0 -0.98438,1.01367l0,8.58594l-3.29297,-3.29297a1.0001,1.0001 0 0 0 -0.7168,-0.30274a1.0001,1.0001 0 0 0 -0.69726,1.7168l4.91211,4.91211a1.0001,1.0001 0 0 0 1.5918,-0.00195l4.91015,-4.91016a1.0001,1.0001 0 1 0 -1.41406,-1.41406l-3.29297,3.29297l0,-8.58594a1.0001,1.0001 0 0 0 -1.01562,-1.01367zm-27.98438,15.01367c-0.553,0 -1,0.447 -1,1l0,3c0,0.266 0.10497,0.52003 0.29297,0.70703l13.70703,13.29297l12,0l13.70703,-13.29297c0.188,-0.187 0.29297,-0.44103 0.29297,-0.70703l0,-3c0,-0.553 -0.447,-1 -1,-1l-38,0zm13,20l0,4c0,0.352 0.18437,0.67742 0.48438,0.85742l10,6c0.15899,0.095 0.33762,0.14258 0.51562,0.14258c0.17,0 0.33919,-0.04386 0.49219,-0.13086c0.314,-0.178 0.50781,-0.50914 0.50781,-0.86914l0,-10l-12,0z"/>
 </g>
</svg>