<?xml version="1.0" encoding="UTF-8"?>
<svg width="16px" height="16px" viewBox="0 0 16 16" version="1.1" xmlns="http://www.w3.org/2000/svg" xmlns:xlink="http://www.w3.org/1999/xlink">
    <!-- Generator: Sketch 47.1 (45422) - http://www.bohemiancoding.com/sketch -->
    <title>Gluten Free</title>
    <desc>Created with Sketch.</desc>
    <defs></defs>
    <g id="Page-1" stroke="none" stroke-width="1" fill="none" fill-rule="evenodd">
        <g id="Booking-More-Details---2" transform="translate(-659.000000, -532.000000)">
            <g id="Right-Panel" transform="translate(445.000000, 100.000000)">
                <g id="Tags" transform="translate(0.000000, 420.000000)">
                    <g id="3" transform="translate(197.000000, 0.000000)">
                        <g id="Gluten-Free" transform="translate(18.000000, 13.000000)">
                            <g>
                                <path d="M14,7 C14,10.8659091 10.8652727,14 7,14 C3.13472727,14 0,10.8659091 0,7 C0,3.13281818 3.13472727,0 7,0 C10.8652727,0 14,3.13281818 14,7 Z" id="Stroke-1" stroke="#545F6D" stroke-width="2" stroke-linecap="round" stroke-linejoin="round"></path>
                                <path d="M2.33290909,2.33259091 L11.6658182,11.6655" id="Stroke-3" stroke="#545F6D" stroke-width="2" stroke-linecap="round" stroke-linejoin="round"></path>
                                <g id="Group" transform="translate(3.500000, 2.000000)" fill-rule="nonzero" fill="#545F6D">
                                    <path d="M0.714285714,3.42857143 L0.428571429,3.42857143 C0.214285714,3.42857143 0.0714285714,3.57142857 0.0714285714,3.71428571 L0.0714285714,4 C0.0714285714,5.28571429 1.07142857,6.35714286 2.42857143,6.35714286 L2.71428571,6.35714286 C2.85714286,6.35714286 3.07142857,6.21428571 3.07142857,6 L3.07142857,5.78571429 C3,4.5 2,3.42857143 0.714285714,3.42857143 Z" id="Shape"></path>
                                    <path d="M6.78571429,3.42857143 L6.5,3.42857143 C5.21428571,3.42857143 4.14285714,4.5 4.14285714,5.78571429 L4.14285714,6.07142857 C4.14285714,6.28571429 4.28571429,6.42857143 4.5,6.42857143 L4.78571429,6.42857143 C6.07142857,6.42857143 7.14285714,5.35714286 7.14285714,4.07142857 L7.14285714,3.71428571 C7.07142857,3.57142857 6.92857143,3.42857143 6.78571429,3.42857143 Z" id="Shape"></path>
                                    <path d="M0.714285714,6.42857143 L0.428571429,6.42857143 C0.214285714,6.42857143 0.0714285714,6.57142857 0.0714285714,6.78571429 L0.0714285714,7.07142857 C0.0714285714,8.35714286 1.07142857,9.42857143 2.42857143,9.42857143 L2.71428571,9.42857143 C2.85714286,9.42857143 3.07142857,9.28571429 3.07142857,9.07142857 L3.07142857,8.78571429 C3,7.5 2,6.42857143 0.714285714,6.42857143 Z" id="Shape"></path>
                                    <path d="M6.78571429,6.42857143 L6.5,6.42857143 C5.21428571,6.42857143 4.14285714,7.5 4.14285714,8.78571429 L4.14285714,9.07142857 C4.14285714,9.28571429 4.28571429,9.42857143 4.5,9.42857143 L4.78571429,9.42857143 C6.07142857,9.42857143 7.14285714,8.35714286 7.14285714,7.07142857 L7.14285714,6.78571429 C7.07142857,6.57142857 6.92857143,6.42857143 6.78571429,6.42857143 Z" id="Shape"></path>
                                    <path d="M4,0.5 L3.78571429,0.285714286 C3.71428571,0.214285714 3.64285714,0.214285714 3.57142857,0.214285714 C3.5,0.214285714 3.35714286,0.285714286 3.35714286,0.285714286 L3.14285714,0.5 C2.21428571,1.42857143 2.21428571,2.92857143 3.14285714,3.78571429 L3.28571429,3.92857143 L3.28571429,9.42857143 C3.28571429,9.57142857 3.42857143,9.71428571 3.64285714,9.71428571 C3.78571429,9.71428571 4,9.57142857 4,9.42857143 L4,3.85714286 L4.07142857,3.71428571 C4.92857143,2.85714286 4.92857143,1.35714286 4,0.5 Z" id="Shape"></path>
                                </g>
                            </g>
                        </g>
                    </g>
                </g>
            </g>
        </g>
    </g>
</svg>