<?xml version="1.0" encoding="UTF-8"?>
<svg width="15px" height="16px" viewBox="0 0 15 16" version="1.1" xmlns="http://www.w3.org/2000/svg" xmlns:xlink="http://www.w3.org/1999/xlink">
    <!-- Generator: Sketch 47.1 (45422) - http://www.bohemiancoding.com/sketch -->
    <title>Allergies</title>
    <desc>Created with Sketch.</desc>
    <defs></defs>
    <g id="Page-1" stroke="none" stroke-width="1" fill="none" fill-rule="evenodd" stroke-linecap="round" stroke-linejoin="round">
        <g id="Booking-More-Details---2" transform="translate(-463.000000, -581.000000)" stroke="#545F6D">
            <g id="Right-Panel" transform="translate(445.000000, 100.000000)">
                <g id="Tags" transform="translate(0.000000, 420.000000)">
                    <g id="7" transform="translate(0.000000, 48.000000)">
                        <g id="Allergies" transform="translate(19.000000, 14.000000)">
                            <g>
                                <path d="M7,0.913043478 C7,1.24904348 6.72730435,1.52173913 6.39130435,1.52173913 C6.05530435,1.52173913 5.7826087,1.24904348 5.7826087,0.913043478 C5.7826087,0.577043478 6.05530435,0.304347826 6.39130435,0.304347826 C6.72730435,0.304347826 7,0.577043478 7,0.913043478 L7,0.913043478 Z" id="Stroke-149" stroke-width="2"></path>
                                <path d="M7,13.0869565 C7,13.4229565 6.72730435,13.6956522 6.39130435,13.6956522 C6.05530435,13.6956522 5.7826087,13.4229565 5.7826087,13.0869565 C5.7826087,12.7509565 6.05530435,12.4782609 6.39130435,12.4782609 C6.72730435,12.4782609 7,12.7509565 7,13.0869565 L7,13.0869565 Z" id="Stroke-151" stroke-width="2"></path>
                                <path d="M6,10.6521739 L6,12.4782609" id="Stroke-153" stroke-width="2"></path>
                                <path d="M6,3.34782609 L6,1.52173913" id="Stroke-155" stroke-width="2"></path>
                                <path d="M9.43478261,5.47826087 L11.2608696,4.56521739" id="Stroke-157" stroke-width="2"></path>
                                <path d="M3.34782609,8.52173913 L1.52173913,9.43478261" id="Stroke-159" stroke-width="2"></path>
                                <path d="M3.34782609,5.47826087 L1.52173913,4.56521739" id="Stroke-161" stroke-width="2"></path>
                                <path d="M9.43478261,8.52173913 L11.2608696,9.43478261" id="Stroke-163" stroke-width="2"></path>
                                <path d="M12.4782609,10.0434783 C12.4782609,10.3794783 12.2055652,10.6521739 11.8695652,10.6521739 C11.5335652,10.6521739 11.2608696,10.3794783 11.2608696,10.0434783 C11.2608696,9.70747826 11.5335652,9.43478261 11.8695652,9.43478261 C12.2055652,9.43478261 12.4782609,9.70747826 12.4782609,10.0434783 L12.4782609,10.0434783 Z" id="Stroke-165" stroke-width="2"></path>
                                <path d="M12.4782609,4.56521739 C12.4782609,4.90121739 12.2055652,5.17391304 11.8695652,5.17391304 C11.5335652,5.17391304 11.2608696,4.90121739 11.2608696,4.56521739 C11.2608696,4.22921739 11.5335652,3.95652174 11.8695652,3.95652174 C12.2055652,3.95652174 12.4782609,4.22921739 12.4782609,4.56521739 L12.4782609,4.56521739 Z" id="Stroke-167" stroke-width="2"></path>
                                <path d="M1.52173913,10.0434783 C1.52173913,10.3794783 1.24904348,10.6521739 0.913043478,10.6521739 C0.577043478,10.6521739 0.304347826,10.3794783 0.304347826,10.0434783 C0.304347826,9.70747826 0.577043478,9.43478261 0.913043478,9.43478261 C1.24904348,9.43478261 1.52173913,9.70747826 1.52173913,10.0434783 L1.52173913,10.0434783 Z" id="Stroke-169" stroke-width="2"></path>
                                <path d="M1.52173913,4.56521739 C1.52173913,4.90121739 1.24904348,5.17391304 0.913043478,5.17391304 C0.577043478,5.17391304 0.304347826,4.90121739 0.304347826,4.56521739 C0.304347826,4.22921739 0.577043478,3.95652174 0.913043478,3.95652174 C1.24904348,3.95652174 1.52173913,4.22921739 1.52173913,4.56521739 L1.52173913,4.56521739 Z" id="Stroke-171" stroke-width="2"></path>
                                <polygon id="Stroke-146" stroke-width="2" points="3.34782609 5.47826087 6.39130435 3.34782609 9.43478261 5.47826087 9.43478261 8.52173913 6.39130435 10.6521739 3.34782609 8.52173913"></polygon>
                            </g>
                        </g>
                    </g>
                </g>
            </g>
        </g>
    </g>
</svg>