<?xml version="1.0" encoding="UTF-8"?>
<svg width="17px" height="15px" viewBox="0 0 17 15" version="1.1" xmlns="http://www.w3.org/2000/svg" xmlns:xlink="http://www.w3.org/1999/xlink">
    <!-- Generator: Sketch 47.1 (45422) - http://www.bohemiancoding.com/sketch -->
    <title>Pescatarian</title>
    <desc>Created with Sketch.</desc>
    <defs></defs>
    <g id="Page-1" stroke="none" stroke-width="1" fill="none" fill-rule="evenodd">
        <g id="Booking-More-Details---2" transform="translate(-968.000000, -533.000000)" stroke="#54606E">
            <g id="Right-Panel" transform="translate(445.000000, 100.000000)">
                <g id="Tags" transform="translate(0.000000, 420.000000)">
                    <g id="5" transform="translate(506.000000, 0.000000)">
                        <g id="Pescatarian" transform="translate(15.000000, 10.000000)">
                            <g>
                                <path d="M3.94476791,13.3979545 C4.09394179,13.3979545 4.19339105,13.3482299 4.34256493,13.2985052 C4.34256493,13.2985052 4.39228955,13.2985052 4.39228955,13.2487806 L6.08292687,12.2045634 C6.77907164,13.199056 7.6243903,13.99465 8.66860746,14.5416209 C8.41998433,15.0885918 8.32053508,15.5361134 8.32053508,15.8344612 C8.32053508,16.530606 8.81778134,17.0278522 9.41447687,17.0278522 C9.56365075,17.0278522 9.71282463,16.9781276 9.86199851,16.928403 C9.86199851,16.928403 9.91172314,16.928403 9.91172314,16.8786784 L12.3979545,15.3372149 C15.2322582,15.188041 17.7184896,13.3482299 18.7627067,10.6631 C18.8124313,10.5636507 18.8124313,10.4144769 18.7627067,10.3150276 C17.7184896,7.67962239 15.3317075,5.88953582 12.5471284,5.64091269 L9.96144776,4.14917388 C9.96144776,4.14917388 9.91172314,4.14917388 9.91172314,4.09944925 C9.76254926,4.04972463 9.61337537,4 9.46420149,4 C8.81778134,4 8.3702597,4.49724627 8.3702597,5.19339105 C8.3702597,5.54146343 8.51943358,5.98898508 8.76805672,6.5856806 C7.72383955,7.13265149 6.77907164,7.97797015 6.13265149,8.97246269 L4.44201418,7.92824552 C4.44201418,7.92824552 4.39228955,7.92824552 4.39228955,7.8785209 C4.2928403,7.82879627 4.14366642,7.77907164 3.99449254,7.77907164 C3.49724627,7.77907164 3.04972463,8.22659328 3.04972463,8.77356418 C3.04972463,9.27081045 3.44752164,10.1161291 3.69614478,10.5636507 C3.44752164,11.060897 3,11.9062157 3,12.4531866 C3,13.0001575 3.39779702,13.3979545 3.94476791,13.3979545 Z" id="Path" stroke-width="2" transform="translate(10.900000, 10.513926) rotate(-34.000000) translate(-10.900000, -10.513926) "></path>
                                <circle id="Oval-2" stroke-width="2" cx="13.5" cy="8.5" r="1"></circle>
                            </g>
                        </g>
                    </g>
                </g>
            </g>
        </g>
    </g>
</svg>