<?xml version="1.0" encoding="UTF-8"?>
<svg width="15px" height="13px" viewBox="0 0 15 13" version="1.1" xmlns="http://www.w3.org/2000/svg" xmlns:xlink="http://www.w3.org/1999/xlink">
    <!-- Generator: Sketch 47.1 (45422) - http://www.bohemiancoding.com/sketch -->
    <title>Birthday</title>
    <desc>Created with Sketch.</desc>
    <defs></defs>
    <g id="Page-1" stroke="none" stroke-width="1" fill="none" fill-rule="evenodd" stroke-linecap="round" stroke-linejoin="round">
        <g id="Booking-More-Details---2" transform="translate(-733.000000, -582.000000)" stroke="#545F6D">
            <g id="Right-Panel" transform="translate(445.000000, 100.000000)">
                <g id="Tags" transform="translate(0.000000, 420.000000)">
                    <g id="9" transform="translate(270.000000, 48.000000)">
                        <g id="Birthday" transform="translate(19.000000, 13.000000)">
                            <g transform="translate(0.000000, 2.000000)">
                                <path d="M13,11 L0,11" id="Stroke-1" stroke-width="2"></path>
                                <path d="M1,11 L1,8.33333333 C1,7.6 1.55,7 2.22222222,7 L10.7777778,7 C11.4506111,7 12,7.6 12,8.33333333 L12,11" id="Stroke-3" stroke-width="2"></path>
                                <path d="M3,7 L3,4.33333333 C3,3.6 3.45,3 4,3 L9,3 C9.5505,3 10,3.6 10,4.33333333 L10,7" id="Stroke-5" stroke-width="2"></path>
                                <path d="M6.00125,2.1006 C6.00125,1.35 6.29275,0.9996 6.3325,0 C6.3325,0 6.999,0.9 6.999,2.1006 L7,2.1006 C7,2.5968 6.7765,3 6.5,3 C6.22375,3 6,2.5968 6,2.1006" id="Stroke-7" stroke-width="2"></path>
                            </g>
                        </g>
                    </g>
                </g>
            </g>
        </g>
    </g>
</svg>