<?xml version="1.0" encoding="UTF-8"?>
<svg width="22px" height="22px" viewBox="0 0 22 22" version="1.1" xmlns="http://www.w3.org/2000/svg" xmlns:xlink="http://www.w3.org/1999/xlink">
    <!-- Generator: Sketch 47 (45396) - http://www.bohemiancoding.com/sketch -->
    <title>Timeline</title>
    <desc>Created with Sketch.</desc>
    <defs></defs>
    <g id="Page-1" stroke="none" stroke-width="1" fill="none" fill-rule="evenodd">
        <g id="Timeline" transform="translate(-1165.000000, -26.000000)" stroke="#454B56">
            <g id="Top-Bar">
                <g id="Views" transform="translate(1140.000000, 0.000000)">
                    <g id="1">
                        <g id="Timeline-Un" transform="translate(25.000000, 26.000000)">
                            <g>
                                <path d="M1,0.5 C0.723857625,0.5 0.5,0.723857625 0.5,1 L0.5,21 C0.5,21.2761424 0.723857625,21.5 1,21.5 C1.27614237,21.5 1.5,21.2761424 1.5,21 L1.5,1 C1.5,0.723857625 1.27614237,0.5 1,0.5 Z M11,0.5 C10.7238576,0.5 10.5,0.723857625 10.5,1 L10.5,21 C10.5,21.2761424 10.7238576,21.5 11,21.5 C11.2761424,21.5 11.5,21.2761424 11.5,21 L11.5,1 C11.5,0.723857625 11.2761424,0.5 11,0.5 Z M21,0.5 C20.7238576,0.5 20.5,0.723857625 20.5,1 L20.5,21 C20.5,21.2761424 20.7238576,21.5 21,21.5 C21.2761424,21.5 21.5,21.2761424 21.5,21 L21.5,1 C21.5,0.723857625 21.2761424,0.5 21,0.5 Z" id="Combined-Shape"></path>
                                <rect id="Rectangle-10" stroke-width="2" x="3" y="4" width="6" height="2" rx="1"></rect>
                                <rect id="Rectangle-10-Copy" stroke-width="2" x="5" y="10" width="12" height="2" rx="1"></rect>
                                <rect id="Rectangle-10-Copy-2" stroke-width="2" x="13" y="16" width="6" height="2" rx="1"></rect>
                            </g>
                        </g>
                    </g>
                </g>
            </g>
        </g>
    </g>
</svg>