<?xml version="1.0" encoding="UTF-8"?>
<svg width="18px" height="17px" viewBox="0 0 18 17" version="1.1" xmlns="http://www.w3.org/2000/svg" xmlns:xlink="http://www.w3.org/1999/xlink">
    <!-- Generator: Sketch 47.1 (45422) - http://www.bohemiancoding.com/sketch -->
    <title>waiting bar status</title>
    <desc>Created with Sketch.</desc>
    <defs></defs>
    <g id="Page-1" stroke="none" stroke-width="1" fill="none" fill-rule="evenodd">
        <g id="Booking-Status" transform="translate(-126.000000, -531.000000)" fill="#D8DEE8">
            <g id="Left-Panel" transform="translate(74.000000, 74.000000)">
                <g id="5" transform="translate(30.000000, 437.000000)">
                    <g id="waiting-bar-status" transform="translate(22.000000, 20.000000)">
                        <g id="Combined-Shape">
                            <path d="M17,0 C17.5522847,-1.01453063e-16 18,0.44771525 18,1 L18,1 L18,1.44575236 C18,1.79054239 17.8223803,2.11101231 17.5299989,2.29375066 L17.5299989,2.29375066 L10,7 L10,11 L13,11 C13.5522847,11 14,11.4477153 14,12 C14,12.5522847 13.5522847,13 13,13 L5,13 C4.44771525,13 4,12.5522847 4,12 C4,11.4477153 4.44771525,11 5,11 L8,11 L8,7 L0.47000106,2.29375066 C0.177619697,2.11101231 4.86313811e-16,1.79054239 4.4408921e-16,1.44575236 L0,1.44575236 L0,1 C-6.76353751e-17,0.44771525 0.44771525,1.01453063e-16 1,0 L1,0 L17,0 Z M5,17 C4.44771525,17 4,16.5522847 4,16 C4,15.4477153 4.44771525,15 5,15 C5.55228475,15 6,15.4477153 6,16 C6,16.5522847 5.55228475,17 5,17 Z M9,17 C8.44771525,17 8,16.5522847 8,16 C8,15.4477153 8.44771525,15 9,15 C9.55228475,15 10,15.4477153 10,16 C10,16.5522847 9.55228475,17 9,17 Z M13,17 C12.4477153,17 12,16.5522847 12,16 C12,15.4477153 12.4477153,15 13,15 C13.5522847,15 14,15.4477153 14,16 C14,16.5522847 13.5522847,17 13,17 Z"></path>
                        </g>
                    </g>
                </g>
            </g>
        </g>
    </g>
</svg>