<?xml version="1.0" encoding="UTF-8"?>
<svg width="15px" height="18px" viewBox="0 0 15 18" version="1.1" xmlns="http://www.w3.org/2000/svg" xmlns:xlink="http://www.w3.org/1999/xlink">
    <!-- Generator: Sketch 47.1 (45422) - http://www.bohemiancoding.com/sketch -->
    <title>Waiting List</title>
    <desc>Created with Sketch.</desc>
    <defs></defs>
    <g id="Page-1" stroke="none" stroke-width="1" fill="none" fill-rule="evenodd" opacity="0.400000006">
        <g id="Floor---Bookings" transform="translate(-116.000000, -302.000000)" stroke="#FFFFFF">
            <g id="Left-Panel" transform="translate(74.000000, 74.000000)">
                <g id="1" transform="translate(0.000000, 194.000000)">
                    <g id="Waiting-List" transform="translate(43.000000, 35.000000)">
                        <g>
                            <path d="M2,16 L11,16 L11,16 C12.1045695,16 13,15.1045695 13,14 L13,4 L13,4 C13,2.8954305 12.1045695,2 11,2 L2,2 L2,2 C0.8954305,2 -1.3527075e-16,2.8954305 0,4 L0,14 L0,14 C-8.45784042e-16,15.1045695 0.8954305,16 2,16 Z" id="Stroke-1" stroke-width="2"></path>
                            <path d="M5,2 L5,1.33333333 C5,0.597 5.671625,0 6.5,0 C7.328375,0 8,0.597 8,1.33333333 L8,2" id="Stroke-3" stroke-width="2"></path>
                            <path d="M9,2 L9,3 C9,3.5495 8.74972222,4 8,4 L5,4 C4.25027778,4 4,3.5495 4,3 L4,2" id="Stroke-4" stroke-width="2"></path>
                            <path d="M3,8 L10,8" id="Line-2" stroke-width="2"></path>
                            <path d="M3,11 L8,11" id="Line-2-Copy" stroke-width="2"></path>
                        </g>
                    </g>
                </g>
            </g>
        </g>
    </g>
</svg>